%TF.GenerationSoftware,KiCad,Pcbnew,(5.1.10)-1*%
%TF.CreationDate,2022-09-07T09:40:49-04:00*%
%TF.ProjectId,BlenderMacroBoardPCB,426c656e-6465-4724-9d61-63726f426f61,rev?*%
%TF.SameCoordinates,Original*%
%TF.FileFunction,Soldermask,Bot*%
%TF.FilePolarity,Negative*%
%FSLAX46Y46*%
G04 Gerber Fmt 4.6, Leading zero omitted, Abs format (unit mm)*
G04 Created by KiCad (PCBNEW (5.1.10)-1) date 2022-09-07 09:40:49*
%MOMM*%
%LPD*%
G01*
G04 APERTURE LIST*
%ADD10C,2.000000*%
%ADD11R,3.500000X1.700000*%
%ADD12O,1.700000X1.700000*%
%ADD13R,1.700000X1.700000*%
%ADD14C,1.700000*%
%ADD15C,4.000000*%
%ADD16C,2.200000*%
%ADD17C,2.500000*%
%ADD18R,2.000000X2.000000*%
%ADD19R,2.000000X3.200000*%
G04 APERTURE END LIST*
D10*
%TO.C,Reset*%
X147447000Y-49888000D03*
X151947000Y-49888000D03*
X147447000Y-56388000D03*
X151947000Y-56388000D03*
%TD*%
D11*
%TO.C,Pico*%
X140070000Y-93345000D03*
X140070000Y-90805000D03*
X140070000Y-88265000D03*
X140070000Y-85725000D03*
X140070000Y-83185000D03*
X140070000Y-80645000D03*
X140070000Y-78105000D03*
X140070000Y-75565000D03*
X140070000Y-73025000D03*
X140070000Y-70485000D03*
X140070000Y-67945000D03*
X140070000Y-65405000D03*
X140070000Y-62865000D03*
X140070000Y-60325000D03*
X140070000Y-57785000D03*
X140070000Y-55245000D03*
X140070000Y-52705000D03*
X140070000Y-50165000D03*
X140070000Y-47625000D03*
X140070000Y-45085000D03*
X159650000Y-93345000D03*
X159650000Y-90805000D03*
X159650000Y-88265000D03*
X159650000Y-85725000D03*
X159650000Y-83185000D03*
X159650000Y-80645000D03*
X159650000Y-78105000D03*
X159650000Y-75565000D03*
X159650000Y-73025000D03*
X159650000Y-70485000D03*
X159650000Y-67945000D03*
X159650000Y-65405000D03*
X159650000Y-62865000D03*
X159650000Y-60325000D03*
X159650000Y-57785000D03*
X159650000Y-55245000D03*
X159650000Y-52705000D03*
X159650000Y-50165000D03*
X159650000Y-47625000D03*
X159650000Y-45085000D03*
D12*
X140970000Y-45085000D03*
X140970000Y-47625000D03*
D13*
X140970000Y-50165000D03*
D12*
X140970000Y-52705000D03*
X140970000Y-55245000D03*
X140970000Y-57785000D03*
X140970000Y-60325000D03*
D13*
X140970000Y-62865000D03*
D12*
X140970000Y-65405000D03*
X140970000Y-67945000D03*
X140970000Y-70485000D03*
X140970000Y-73025000D03*
D13*
X140970000Y-75565000D03*
D12*
X140970000Y-78105000D03*
X140970000Y-80645000D03*
X140970000Y-83185000D03*
X140970000Y-85725000D03*
D13*
X140970000Y-88265000D03*
D12*
X140970000Y-90805000D03*
X140970000Y-93345000D03*
X158750000Y-93345000D03*
X158750000Y-90805000D03*
D13*
X158750000Y-88265000D03*
D12*
X158750000Y-85725000D03*
X158750000Y-83185000D03*
X158750000Y-80645000D03*
X158750000Y-78105000D03*
D13*
X158750000Y-75565000D03*
D12*
X158750000Y-73025000D03*
X158750000Y-70485000D03*
X158750000Y-67945000D03*
X158750000Y-65405000D03*
D13*
X158750000Y-62865000D03*
D12*
X158750000Y-60325000D03*
X158750000Y-57785000D03*
X158750000Y-55245000D03*
X158750000Y-52705000D03*
D13*
X158750000Y-50165000D03*
D12*
X158750000Y-47625000D03*
X158750000Y-45085000D03*
%TD*%
D14*
%TO.C,Button9*%
X175260000Y-113665000D03*
X165100000Y-113665000D03*
D15*
X170180000Y-113665000D03*
D16*
X166370000Y-111125000D03*
X172720000Y-108585000D03*
%TD*%
D12*
%TO.C,Pin Header*%
X140970000Y-93472000D03*
X140970000Y-90932000D03*
X140970000Y-88392000D03*
X140970000Y-85852000D03*
X140970000Y-83312000D03*
X140970000Y-80772000D03*
X140970000Y-78232000D03*
X140970000Y-75692000D03*
X140970000Y-73152000D03*
X140970000Y-70612000D03*
X140970000Y-68072000D03*
X140970000Y-65532000D03*
X140970000Y-62992000D03*
X140970000Y-60452000D03*
X140970000Y-57912000D03*
X140970000Y-55372000D03*
X140970000Y-52832000D03*
X140970000Y-50292000D03*
X140970000Y-47752000D03*
D13*
X140970000Y-45212000D03*
%TD*%
D17*
%TO.C,REF\u002A\u002A*%
X181737000Y-40513000D03*
%TD*%
D14*
%TO.C,Button3*%
X175260000Y-73025000D03*
X165100000Y-73025000D03*
D15*
X170180000Y-73025000D03*
D16*
X166370000Y-70485000D03*
X172720000Y-67945000D03*
%TD*%
%TO.C,Button6*%
X172720000Y-88265000D03*
X166370000Y-90805000D03*
D15*
X170180000Y-93345000D03*
D14*
X165100000Y-93345000D03*
X175260000Y-93345000D03*
%TD*%
D13*
%TO.C,Pin Header*%
X158750000Y-45085000D03*
D12*
X158750000Y-47625000D03*
X158750000Y-50165000D03*
X158750000Y-52705000D03*
X158750000Y-55245000D03*
X158750000Y-57785000D03*
X158750000Y-60325000D03*
X158750000Y-62865000D03*
X158750000Y-65405000D03*
X158750000Y-67945000D03*
X158750000Y-70485000D03*
X158750000Y-73025000D03*
X158750000Y-75565000D03*
X158750000Y-78105000D03*
X158750000Y-80645000D03*
X158750000Y-83185000D03*
X158750000Y-85725000D03*
X158750000Y-88265000D03*
X158750000Y-90805000D03*
X158750000Y-93345000D03*
%TD*%
D16*
%TO.C,Button0*%
X172720000Y-47625000D03*
X166370000Y-50165000D03*
D15*
X170180000Y-52705000D03*
D14*
X165100000Y-52705000D03*
X175260000Y-52705000D03*
%TD*%
%TO.C,Button4*%
X135890000Y-93345000D03*
X125730000Y-93345000D03*
D15*
X130810000Y-93345000D03*
D16*
X127000000Y-90805000D03*
X133350000Y-88265000D03*
%TD*%
D14*
%TO.C,Button1*%
X135890000Y-73025000D03*
X125730000Y-73025000D03*
D15*
X130810000Y-73025000D03*
D16*
X127000000Y-70485000D03*
X133350000Y-67945000D03*
%TD*%
D17*
%TO.C,REF\u002A\u002A*%
X119507000Y-40513000D03*
%TD*%
D14*
%TO.C,Button5*%
X155575000Y-93345000D03*
X145415000Y-93345000D03*
D15*
X150495000Y-93345000D03*
D16*
X146685000Y-90805000D03*
X153035000Y-88265000D03*
%TD*%
D18*
%TO.C,Rotary 0*%
X132715000Y-45593000D03*
D10*
X130215000Y-45593000D03*
X127715000Y-45593000D03*
D19*
X135815000Y-53093000D03*
X124615000Y-53093000D03*
D10*
X132715000Y-60093000D03*
X127715000Y-60093000D03*
%TD*%
D16*
%TO.C,Button2*%
X153035000Y-67945000D03*
X146685000Y-70485000D03*
D15*
X150495000Y-73025000D03*
D14*
X145415000Y-73025000D03*
X155575000Y-73025000D03*
%TD*%
D17*
%TO.C,REF\u002A\u002A*%
X181737000Y-148590000D03*
%TD*%
%TO.C,REF\u002A\u002A*%
X119634000Y-148590000D03*
%TD*%
D18*
%TO.C,Rotary 1*%
X132207000Y-129540000D03*
D10*
X129707000Y-129540000D03*
X127207000Y-129540000D03*
D19*
X135307000Y-137040000D03*
X124107000Y-137040000D03*
D10*
X132207000Y-144040000D03*
X127207000Y-144040000D03*
%TD*%
D18*
%TO.C,Rotary 3*%
X173863000Y-129540000D03*
D10*
X171363000Y-129540000D03*
X168863000Y-129540000D03*
D19*
X176963000Y-137040000D03*
X165763000Y-137040000D03*
D10*
X173863000Y-144040000D03*
X168863000Y-144040000D03*
%TD*%
D14*
%TO.C,Button7*%
X135890000Y-113665000D03*
X125730000Y-113665000D03*
D15*
X130810000Y-113665000D03*
D16*
X127000000Y-111125000D03*
X133350000Y-108585000D03*
%TD*%
%TO.C,Button8*%
X153035000Y-108585000D03*
X146685000Y-111125000D03*
D15*
X150495000Y-113665000D03*
D14*
X145415000Y-113665000D03*
X155575000Y-113665000D03*
%TD*%
D10*
%TO.C,Rotary 2*%
X147993082Y-144016945D03*
X152993082Y-144016945D03*
D19*
X144893082Y-137016945D03*
X156093082Y-137016945D03*
D10*
X147993082Y-129516945D03*
X150493082Y-129516945D03*
D18*
X152993082Y-129516945D03*
%TD*%
M02*
