%TF.GenerationSoftware,KiCad,Pcbnew,(5.1.10)-1*%
%TF.CreationDate,2022-09-07T09:40:49-04:00*%
%TF.ProjectId,BlenderMacroBoardPCB,426c656e-6465-4724-9d61-63726f426f61,rev?*%
%TF.SameCoordinates,Original*%
%TF.FileFunction,Legend,Top*%
%TF.FilePolarity,Positive*%
%FSLAX46Y46*%
G04 Gerber Fmt 4.6, Leading zero omitted, Abs format (unit mm)*
G04 Created by KiCad (PCBNEW (5.1.10)-1) date 2022-09-07 09:40:49*
%MOMM*%
%LPD*%
G01*
G04 APERTURE LIST*
%ADD10C,0.150000*%
%ADD11C,0.120000*%
%ADD12C,0.010000*%
G04 APERTURE END LIST*
D10*
X142185428Y-39044571D02*
X142328285Y-39092190D01*
X142375904Y-39139809D01*
X142423523Y-39235047D01*
X142423523Y-39377904D01*
X142375904Y-39473142D01*
X142328285Y-39520761D01*
X142233047Y-39568380D01*
X141852095Y-39568380D01*
X141852095Y-38568380D01*
X142185428Y-38568380D01*
X142280666Y-38616000D01*
X142328285Y-38663619D01*
X142375904Y-38758857D01*
X142375904Y-38854095D01*
X142328285Y-38949333D01*
X142280666Y-38996952D01*
X142185428Y-39044571D01*
X141852095Y-39044571D01*
X142994952Y-39568380D02*
X142899714Y-39520761D01*
X142852095Y-39425523D01*
X142852095Y-38568380D01*
X143756857Y-39520761D02*
X143661619Y-39568380D01*
X143471142Y-39568380D01*
X143375904Y-39520761D01*
X143328285Y-39425523D01*
X143328285Y-39044571D01*
X143375904Y-38949333D01*
X143471142Y-38901714D01*
X143661619Y-38901714D01*
X143756857Y-38949333D01*
X143804476Y-39044571D01*
X143804476Y-39139809D01*
X143328285Y-39235047D01*
X144233047Y-38901714D02*
X144233047Y-39568380D01*
X144233047Y-38996952D02*
X144280666Y-38949333D01*
X144375904Y-38901714D01*
X144518761Y-38901714D01*
X144614000Y-38949333D01*
X144661619Y-39044571D01*
X144661619Y-39568380D01*
X145566380Y-39568380D02*
X145566380Y-38568380D01*
X145566380Y-39520761D02*
X145471142Y-39568380D01*
X145280666Y-39568380D01*
X145185428Y-39520761D01*
X145137809Y-39473142D01*
X145090190Y-39377904D01*
X145090190Y-39092190D01*
X145137809Y-38996952D01*
X145185428Y-38949333D01*
X145280666Y-38901714D01*
X145471142Y-38901714D01*
X145566380Y-38949333D01*
X146423523Y-39520761D02*
X146328285Y-39568380D01*
X146137809Y-39568380D01*
X146042571Y-39520761D01*
X145994952Y-39425523D01*
X145994952Y-39044571D01*
X146042571Y-38949333D01*
X146137809Y-38901714D01*
X146328285Y-38901714D01*
X146423523Y-38949333D01*
X146471142Y-39044571D01*
X146471142Y-39139809D01*
X145994952Y-39235047D01*
X146899714Y-39568380D02*
X146899714Y-38901714D01*
X146899714Y-39092190D02*
X146947333Y-38996952D01*
X146994952Y-38949333D01*
X147090190Y-38901714D01*
X147185428Y-38901714D01*
X147852095Y-39044571D02*
X147994952Y-39092190D01*
X148042571Y-39139809D01*
X148090190Y-39235047D01*
X148090190Y-39377904D01*
X148042571Y-39473142D01*
X147994952Y-39520761D01*
X147899714Y-39568380D01*
X147518761Y-39568380D01*
X147518761Y-38568380D01*
X147852095Y-38568380D01*
X147947333Y-38616000D01*
X147994952Y-38663619D01*
X148042571Y-38758857D01*
X148042571Y-38854095D01*
X147994952Y-38949333D01*
X147947333Y-38996952D01*
X147852095Y-39044571D01*
X147518761Y-39044571D01*
X148661619Y-39568380D02*
X148566380Y-39520761D01*
X148518761Y-39473142D01*
X148471142Y-39377904D01*
X148471142Y-39092190D01*
X148518761Y-38996952D01*
X148566380Y-38949333D01*
X148661619Y-38901714D01*
X148804476Y-38901714D01*
X148899714Y-38949333D01*
X148947333Y-38996952D01*
X148994952Y-39092190D01*
X148994952Y-39377904D01*
X148947333Y-39473142D01*
X148899714Y-39520761D01*
X148804476Y-39568380D01*
X148661619Y-39568380D01*
X149852095Y-39568380D02*
X149852095Y-39044571D01*
X149804476Y-38949333D01*
X149709238Y-38901714D01*
X149518761Y-38901714D01*
X149423523Y-38949333D01*
X149852095Y-39520761D02*
X149756857Y-39568380D01*
X149518761Y-39568380D01*
X149423523Y-39520761D01*
X149375904Y-39425523D01*
X149375904Y-39330285D01*
X149423523Y-39235047D01*
X149518761Y-39187428D01*
X149756857Y-39187428D01*
X149852095Y-39139809D01*
X150328285Y-39568380D02*
X150328285Y-38901714D01*
X150328285Y-39092190D02*
X150375904Y-38996952D01*
X150423523Y-38949333D01*
X150518761Y-38901714D01*
X150614000Y-38901714D01*
X151375904Y-39568380D02*
X151375904Y-38568380D01*
X151375904Y-39520761D02*
X151280666Y-39568380D01*
X151090190Y-39568380D01*
X150994952Y-39520761D01*
X150947333Y-39473142D01*
X150899714Y-39377904D01*
X150899714Y-39092190D01*
X150947333Y-38996952D01*
X150994952Y-38949333D01*
X151090190Y-38901714D01*
X151280666Y-38901714D01*
X151375904Y-38949333D01*
X153185428Y-39568380D02*
X152852095Y-39092190D01*
X152614000Y-39568380D02*
X152614000Y-38568380D01*
X152994952Y-38568380D01*
X153090190Y-38616000D01*
X153137809Y-38663619D01*
X153185428Y-38758857D01*
X153185428Y-38901714D01*
X153137809Y-38996952D01*
X153090190Y-39044571D01*
X152994952Y-39092190D01*
X152614000Y-39092190D01*
X153994952Y-39520761D02*
X153899714Y-39568380D01*
X153709238Y-39568380D01*
X153614000Y-39520761D01*
X153566380Y-39425523D01*
X153566380Y-39044571D01*
X153614000Y-38949333D01*
X153709238Y-38901714D01*
X153899714Y-38901714D01*
X153994952Y-38949333D01*
X154042571Y-39044571D01*
X154042571Y-39139809D01*
X153566380Y-39235047D01*
X154375904Y-38901714D02*
X154614000Y-39568380D01*
X154852095Y-38901714D01*
X156185428Y-38568380D02*
X156280666Y-38568380D01*
X156375904Y-38616000D01*
X156423523Y-38663619D01*
X156471142Y-38758857D01*
X156518761Y-38949333D01*
X156518761Y-39187428D01*
X156471142Y-39377904D01*
X156423523Y-39473142D01*
X156375904Y-39520761D01*
X156280666Y-39568380D01*
X156185428Y-39568380D01*
X156090190Y-39520761D01*
X156042571Y-39473142D01*
X155994952Y-39377904D01*
X155947333Y-39187428D01*
X155947333Y-38949333D01*
X155994952Y-38758857D01*
X156042571Y-38663619D01*
X156090190Y-38616000D01*
X156185428Y-38568380D01*
X157137809Y-38568380D02*
X157233047Y-38568380D01*
X157328285Y-38616000D01*
X157375904Y-38663619D01*
X157423523Y-38758857D01*
X157471142Y-38949333D01*
X157471142Y-39187428D01*
X157423523Y-39377904D01*
X157375904Y-39473142D01*
X157328285Y-39520761D01*
X157233047Y-39568380D01*
X157137809Y-39568380D01*
X157042571Y-39520761D01*
X156994952Y-39473142D01*
X156947333Y-39377904D01*
X156899714Y-39187428D01*
X156899714Y-38949333D01*
X156947333Y-38758857D01*
X156994952Y-38663619D01*
X157042571Y-38616000D01*
X157137809Y-38568380D01*
X158423523Y-39568380D02*
X157852095Y-39568380D01*
X158137809Y-39568380D02*
X158137809Y-38568380D01*
X158042571Y-38711238D01*
X157947333Y-38806476D01*
X157852095Y-38854095D01*
D11*
%TO.C,Reset*%
X152947000Y-55388000D02*
X152947000Y-50888000D01*
X148947000Y-56638000D02*
X150447000Y-56638000D01*
X146447000Y-50888000D02*
X146447000Y-55388000D01*
X150447000Y-49638000D02*
X148947000Y-49638000D01*
D12*
%TO.C,G\u002A\u002A\u002A*%
G36*
X168108484Y-37824574D02*
G01*
X168138075Y-37828762D01*
X168163308Y-37836221D01*
X168190472Y-37848479D01*
X168202841Y-37854834D01*
X168216368Y-37863562D01*
X168242287Y-37881915D01*
X168279612Y-37909136D01*
X168327357Y-37944469D01*
X168384535Y-37987160D01*
X168450161Y-38036452D01*
X168523247Y-38091589D01*
X168602808Y-38151816D01*
X168687858Y-38216376D01*
X168777409Y-38284514D01*
X168870477Y-38355475D01*
X168966073Y-38428502D01*
X169063213Y-38502840D01*
X169160909Y-38577732D01*
X169258176Y-38652424D01*
X169354028Y-38726158D01*
X169447477Y-38798181D01*
X169537537Y-38867734D01*
X169623223Y-38934064D01*
X169703548Y-38996414D01*
X169777526Y-39054028D01*
X169844170Y-39106150D01*
X169902494Y-39152025D01*
X169951511Y-39190897D01*
X169990237Y-39222010D01*
X170017683Y-39244609D01*
X170027600Y-39253123D01*
X170127136Y-39350490D01*
X170220905Y-39460824D01*
X170306718Y-39580806D01*
X170382386Y-39707114D01*
X170445721Y-39836427D01*
X170492066Y-39957791D01*
X170535506Y-40117117D01*
X170562246Y-40277299D01*
X170572434Y-40437484D01*
X170566217Y-40596818D01*
X170543741Y-40754448D01*
X170505155Y-40909521D01*
X170450604Y-41061184D01*
X170380237Y-41208583D01*
X170294201Y-41350864D01*
X170238268Y-41429265D01*
X170196644Y-41480360D01*
X170144894Y-41537655D01*
X170086685Y-41597534D01*
X170025690Y-41656380D01*
X169965576Y-41710577D01*
X169910016Y-41756509D01*
X169893141Y-41769357D01*
X169743904Y-41869572D01*
X169586007Y-41955466D01*
X169420439Y-42026632D01*
X169248188Y-42082668D01*
X169070241Y-42123167D01*
X169003133Y-42134136D01*
X168947914Y-42140530D01*
X168880910Y-42145640D01*
X168806758Y-42149342D01*
X168730093Y-42151513D01*
X168655549Y-42152029D01*
X168587764Y-42150768D01*
X168531371Y-42147607D01*
X168523316Y-42146878D01*
X168347536Y-42122205D01*
X168177328Y-42083173D01*
X168013545Y-42030420D01*
X167857040Y-41964588D01*
X167708666Y-41886316D01*
X167569275Y-41796244D01*
X167439721Y-41695012D01*
X167320858Y-41583262D01*
X167213536Y-41461631D01*
X167118611Y-41330762D01*
X167036935Y-41191293D01*
X166969360Y-41043866D01*
X166937611Y-40956913D01*
X166904232Y-40842825D01*
X166882969Y-40736567D01*
X166873289Y-40634711D01*
X166873882Y-40546867D01*
X166879484Y-40441033D01*
X166859692Y-40458967D01*
X166848032Y-40468945D01*
X166824524Y-40488560D01*
X166790454Y-40516762D01*
X166747107Y-40552500D01*
X166695768Y-40594723D01*
X166637725Y-40642380D01*
X166574261Y-40694420D01*
X166506663Y-40749793D01*
X166436217Y-40807448D01*
X166364208Y-40866333D01*
X166291921Y-40925398D01*
X166220643Y-40983592D01*
X166151660Y-41039865D01*
X166086256Y-41093165D01*
X166025717Y-41142442D01*
X165971330Y-41186644D01*
X165924380Y-41224721D01*
X165886152Y-41255623D01*
X165857932Y-41278297D01*
X165841006Y-41291694D01*
X165838897Y-41293313D01*
X165768538Y-41338613D01*
X165695124Y-41371087D01*
X165620676Y-41390701D01*
X165547215Y-41397419D01*
X165476759Y-41391206D01*
X165411330Y-41372027D01*
X165352946Y-41339846D01*
X165310650Y-41302550D01*
X165280714Y-41264756D01*
X165260388Y-41224717D01*
X165246887Y-41176352D01*
X165243054Y-41155077D01*
X165240280Y-41087321D01*
X165252257Y-41016811D01*
X165277876Y-40946729D01*
X165316030Y-40880255D01*
X165356236Y-40830300D01*
X165369456Y-40818210D01*
X165395596Y-40796321D01*
X165434091Y-40765074D01*
X165484376Y-40724909D01*
X165545884Y-40676269D01*
X165618052Y-40619596D01*
X165700313Y-40555331D01*
X165792103Y-40483916D01*
X165892857Y-40405792D01*
X166002009Y-40321401D01*
X166073132Y-40266551D01*
X167593402Y-40266551D01*
X167593821Y-40388138D01*
X167610562Y-40508688D01*
X167643553Y-40627119D01*
X167692720Y-40742349D01*
X167753745Y-40846964D01*
X167832325Y-40949996D01*
X167923619Y-41042877D01*
X168026197Y-41124762D01*
X168138627Y-41194810D01*
X168259480Y-41252177D01*
X168387325Y-41296021D01*
X168520731Y-41325499D01*
X168579800Y-41333587D01*
X168639201Y-41337659D01*
X168708859Y-41338356D01*
X168782482Y-41335897D01*
X168853779Y-41330505D01*
X168916460Y-41322400D01*
X168921077Y-41321613D01*
X169032159Y-41296245D01*
X169143621Y-41259538D01*
X169251004Y-41213354D01*
X169349849Y-41159553D01*
X169416162Y-41114980D01*
X169518479Y-41029657D01*
X169607160Y-40936149D01*
X169681905Y-40835578D01*
X169742414Y-40729065D01*
X169788387Y-40617732D01*
X169819523Y-40502700D01*
X169835522Y-40385091D01*
X169836083Y-40266027D01*
X169820908Y-40146628D01*
X169789695Y-40028017D01*
X169742143Y-39911316D01*
X169739735Y-39906372D01*
X169675379Y-39794091D01*
X169597619Y-39691319D01*
X169507538Y-39598799D01*
X169406218Y-39517275D01*
X169294743Y-39447489D01*
X169174197Y-39390184D01*
X169045661Y-39346103D01*
X168910219Y-39315989D01*
X168870418Y-39310056D01*
X168821314Y-39305708D01*
X168761466Y-39303772D01*
X168695678Y-39304094D01*
X168628754Y-39306518D01*
X168565499Y-39310889D01*
X168510716Y-39317051D01*
X168478200Y-39322729D01*
X168342569Y-39359853D01*
X168214769Y-39410240D01*
X168095866Y-39473098D01*
X167986926Y-39547638D01*
X167889014Y-39633070D01*
X167803196Y-39728604D01*
X167730539Y-39833449D01*
X167690799Y-39906372D01*
X167641819Y-40024586D01*
X167609377Y-40145006D01*
X167593402Y-40266551D01*
X166073132Y-40266551D01*
X166118993Y-40231184D01*
X166243246Y-40135584D01*
X166363696Y-40043100D01*
X167323932Y-39306500D01*
X166760183Y-39301965D01*
X166638523Y-39300896D01*
X166532933Y-39299767D01*
X166442549Y-39298556D01*
X166366509Y-39297241D01*
X166303949Y-39295799D01*
X166254004Y-39294210D01*
X166215813Y-39292451D01*
X166188511Y-39290501D01*
X166171235Y-39288338D01*
X166165299Y-39286920D01*
X166117815Y-39264566D01*
X166073127Y-39232239D01*
X166037223Y-39194560D01*
X166027685Y-39180710D01*
X166013641Y-39155328D01*
X166005900Y-39132235D01*
X166002657Y-39104263D01*
X166002102Y-39079110D01*
X166009882Y-39013675D01*
X166033382Y-38953254D01*
X166071921Y-38898652D01*
X166124816Y-38850674D01*
X166191385Y-38810125D01*
X166251790Y-38784377D01*
X166306500Y-38764633D01*
X168483960Y-38756167D01*
X168171020Y-38502166D01*
X168087973Y-38434709D01*
X168017087Y-38376968D01*
X167957336Y-38328038D01*
X167907693Y-38287015D01*
X167867133Y-38252992D01*
X167834629Y-38225064D01*
X167809156Y-38202326D01*
X167789686Y-38183871D01*
X167775194Y-38168795D01*
X167764654Y-38156192D01*
X167757039Y-38145155D01*
X167751323Y-38134781D01*
X167748908Y-38129672D01*
X167734985Y-38079724D01*
X167736668Y-38028393D01*
X167753020Y-37977908D01*
X167783104Y-37930499D01*
X167825985Y-37888395D01*
X167860134Y-37865012D01*
X167920216Y-37838379D01*
X167989814Y-37824200D01*
X168068249Y-37822128D01*
X168108484Y-37824574D01*
G37*
X168108484Y-37824574D02*
X168138075Y-37828762D01*
X168163308Y-37836221D01*
X168190472Y-37848479D01*
X168202841Y-37854834D01*
X168216368Y-37863562D01*
X168242287Y-37881915D01*
X168279612Y-37909136D01*
X168327357Y-37944469D01*
X168384535Y-37987160D01*
X168450161Y-38036452D01*
X168523247Y-38091589D01*
X168602808Y-38151816D01*
X168687858Y-38216376D01*
X168777409Y-38284514D01*
X168870477Y-38355475D01*
X168966073Y-38428502D01*
X169063213Y-38502840D01*
X169160909Y-38577732D01*
X169258176Y-38652424D01*
X169354028Y-38726158D01*
X169447477Y-38798181D01*
X169537537Y-38867734D01*
X169623223Y-38934064D01*
X169703548Y-38996414D01*
X169777526Y-39054028D01*
X169844170Y-39106150D01*
X169902494Y-39152025D01*
X169951511Y-39190897D01*
X169990237Y-39222010D01*
X170017683Y-39244609D01*
X170027600Y-39253123D01*
X170127136Y-39350490D01*
X170220905Y-39460824D01*
X170306718Y-39580806D01*
X170382386Y-39707114D01*
X170445721Y-39836427D01*
X170492066Y-39957791D01*
X170535506Y-40117117D01*
X170562246Y-40277299D01*
X170572434Y-40437484D01*
X170566217Y-40596818D01*
X170543741Y-40754448D01*
X170505155Y-40909521D01*
X170450604Y-41061184D01*
X170380237Y-41208583D01*
X170294201Y-41350864D01*
X170238268Y-41429265D01*
X170196644Y-41480360D01*
X170144894Y-41537655D01*
X170086685Y-41597534D01*
X170025690Y-41656380D01*
X169965576Y-41710577D01*
X169910016Y-41756509D01*
X169893141Y-41769357D01*
X169743904Y-41869572D01*
X169586007Y-41955466D01*
X169420439Y-42026632D01*
X169248188Y-42082668D01*
X169070241Y-42123167D01*
X169003133Y-42134136D01*
X168947914Y-42140530D01*
X168880910Y-42145640D01*
X168806758Y-42149342D01*
X168730093Y-42151513D01*
X168655549Y-42152029D01*
X168587764Y-42150768D01*
X168531371Y-42147607D01*
X168523316Y-42146878D01*
X168347536Y-42122205D01*
X168177328Y-42083173D01*
X168013545Y-42030420D01*
X167857040Y-41964588D01*
X167708666Y-41886316D01*
X167569275Y-41796244D01*
X167439721Y-41695012D01*
X167320858Y-41583262D01*
X167213536Y-41461631D01*
X167118611Y-41330762D01*
X167036935Y-41191293D01*
X166969360Y-41043866D01*
X166937611Y-40956913D01*
X166904232Y-40842825D01*
X166882969Y-40736567D01*
X166873289Y-40634711D01*
X166873882Y-40546867D01*
X166879484Y-40441033D01*
X166859692Y-40458967D01*
X166848032Y-40468945D01*
X166824524Y-40488560D01*
X166790454Y-40516762D01*
X166747107Y-40552500D01*
X166695768Y-40594723D01*
X166637725Y-40642380D01*
X166574261Y-40694420D01*
X166506663Y-40749793D01*
X166436217Y-40807448D01*
X166364208Y-40866333D01*
X166291921Y-40925398D01*
X166220643Y-40983592D01*
X166151660Y-41039865D01*
X166086256Y-41093165D01*
X166025717Y-41142442D01*
X165971330Y-41186644D01*
X165924380Y-41224721D01*
X165886152Y-41255623D01*
X165857932Y-41278297D01*
X165841006Y-41291694D01*
X165838897Y-41293313D01*
X165768538Y-41338613D01*
X165695124Y-41371087D01*
X165620676Y-41390701D01*
X165547215Y-41397419D01*
X165476759Y-41391206D01*
X165411330Y-41372027D01*
X165352946Y-41339846D01*
X165310650Y-41302550D01*
X165280714Y-41264756D01*
X165260388Y-41224717D01*
X165246887Y-41176352D01*
X165243054Y-41155077D01*
X165240280Y-41087321D01*
X165252257Y-41016811D01*
X165277876Y-40946729D01*
X165316030Y-40880255D01*
X165356236Y-40830300D01*
X165369456Y-40818210D01*
X165395596Y-40796321D01*
X165434091Y-40765074D01*
X165484376Y-40724909D01*
X165545884Y-40676269D01*
X165618052Y-40619596D01*
X165700313Y-40555331D01*
X165792103Y-40483916D01*
X165892857Y-40405792D01*
X166002009Y-40321401D01*
X166073132Y-40266551D01*
X167593402Y-40266551D01*
X167593821Y-40388138D01*
X167610562Y-40508688D01*
X167643553Y-40627119D01*
X167692720Y-40742349D01*
X167753745Y-40846964D01*
X167832325Y-40949996D01*
X167923619Y-41042877D01*
X168026197Y-41124762D01*
X168138627Y-41194810D01*
X168259480Y-41252177D01*
X168387325Y-41296021D01*
X168520731Y-41325499D01*
X168579800Y-41333587D01*
X168639201Y-41337659D01*
X168708859Y-41338356D01*
X168782482Y-41335897D01*
X168853779Y-41330505D01*
X168916460Y-41322400D01*
X168921077Y-41321613D01*
X169032159Y-41296245D01*
X169143621Y-41259538D01*
X169251004Y-41213354D01*
X169349849Y-41159553D01*
X169416162Y-41114980D01*
X169518479Y-41029657D01*
X169607160Y-40936149D01*
X169681905Y-40835578D01*
X169742414Y-40729065D01*
X169788387Y-40617732D01*
X169819523Y-40502700D01*
X169835522Y-40385091D01*
X169836083Y-40266027D01*
X169820908Y-40146628D01*
X169789695Y-40028017D01*
X169742143Y-39911316D01*
X169739735Y-39906372D01*
X169675379Y-39794091D01*
X169597619Y-39691319D01*
X169507538Y-39598799D01*
X169406218Y-39517275D01*
X169294743Y-39447489D01*
X169174197Y-39390184D01*
X169045661Y-39346103D01*
X168910219Y-39315989D01*
X168870418Y-39310056D01*
X168821314Y-39305708D01*
X168761466Y-39303772D01*
X168695678Y-39304094D01*
X168628754Y-39306518D01*
X168565499Y-39310889D01*
X168510716Y-39317051D01*
X168478200Y-39322729D01*
X168342569Y-39359853D01*
X168214769Y-39410240D01*
X168095866Y-39473098D01*
X167986926Y-39547638D01*
X167889014Y-39633070D01*
X167803196Y-39728604D01*
X167730539Y-39833449D01*
X167690799Y-39906372D01*
X167641819Y-40024586D01*
X167609377Y-40145006D01*
X167593402Y-40266551D01*
X166073132Y-40266551D01*
X166118993Y-40231184D01*
X166243246Y-40135584D01*
X166363696Y-40043100D01*
X167323932Y-39306500D01*
X166760183Y-39301965D01*
X166638523Y-39300896D01*
X166532933Y-39299767D01*
X166442549Y-39298556D01*
X166366509Y-39297241D01*
X166303949Y-39295799D01*
X166254004Y-39294210D01*
X166215813Y-39292451D01*
X166188511Y-39290501D01*
X166171235Y-39288338D01*
X166165299Y-39286920D01*
X166117815Y-39264566D01*
X166073127Y-39232239D01*
X166037223Y-39194560D01*
X166027685Y-39180710D01*
X166013641Y-39155328D01*
X166005900Y-39132235D01*
X166002657Y-39104263D01*
X166002102Y-39079110D01*
X166009882Y-39013675D01*
X166033382Y-38953254D01*
X166071921Y-38898652D01*
X166124816Y-38850674D01*
X166191385Y-38810125D01*
X166251790Y-38784377D01*
X166306500Y-38764633D01*
X168483960Y-38756167D01*
X168171020Y-38502166D01*
X168087973Y-38434709D01*
X168017087Y-38376968D01*
X167957336Y-38328038D01*
X167907693Y-38287015D01*
X167867133Y-38252992D01*
X167834629Y-38225064D01*
X167809156Y-38202326D01*
X167789686Y-38183871D01*
X167775194Y-38168795D01*
X167764654Y-38156192D01*
X167757039Y-38145155D01*
X167751323Y-38134781D01*
X167748908Y-38129672D01*
X167734985Y-38079724D01*
X167736668Y-38028393D01*
X167753020Y-37977908D01*
X167783104Y-37930499D01*
X167825985Y-37888395D01*
X167860134Y-37865012D01*
X167920216Y-37838379D01*
X167989814Y-37824200D01*
X168068249Y-37822128D01*
X168108484Y-37824574D01*
G36*
X168740667Y-39637833D02*
G01*
X168794445Y-39638108D01*
X168835276Y-39639103D01*
X168867145Y-39641245D01*
X168894035Y-39644965D01*
X168919932Y-39650691D01*
X168948819Y-39658854D01*
X168956045Y-39661042D01*
X169060356Y-39700394D01*
X169154532Y-39751217D01*
X169237713Y-39812447D01*
X169309037Y-39883019D01*
X169367642Y-39961871D01*
X169412667Y-40047938D01*
X169443251Y-40140157D01*
X169458533Y-40237463D01*
X169460186Y-40283638D01*
X169456063Y-40366211D01*
X169443110Y-40439526D01*
X169419969Y-40509519D01*
X169397057Y-40559567D01*
X169342169Y-40650047D01*
X169274276Y-40730113D01*
X169194241Y-40799066D01*
X169102926Y-40856212D01*
X169001193Y-40900852D01*
X168956567Y-40915410D01*
X168894616Y-40929319D01*
X168822280Y-40938476D01*
X168745506Y-40942615D01*
X168670237Y-40941466D01*
X168602418Y-40934760D01*
X168586865Y-40932098D01*
X168483005Y-40904850D01*
X168387192Y-40864757D01*
X168300315Y-40813094D01*
X168223263Y-40751141D01*
X168156923Y-40680174D01*
X168102183Y-40601472D01*
X168059932Y-40516312D01*
X168031058Y-40425973D01*
X168016448Y-40331731D01*
X168016992Y-40234865D01*
X168033577Y-40136653D01*
X168033683Y-40136233D01*
X168064906Y-40046520D01*
X168111200Y-39960985D01*
X168170836Y-39881692D01*
X168242084Y-39810704D01*
X168323214Y-39750087D01*
X168388032Y-39713399D01*
X168446123Y-39686286D01*
X168498257Y-39666270D01*
X168548949Y-39652384D01*
X168602711Y-39643660D01*
X168664057Y-39639132D01*
X168737501Y-39637831D01*
X168740667Y-39637833D01*
G37*
X168740667Y-39637833D02*
X168794445Y-39638108D01*
X168835276Y-39639103D01*
X168867145Y-39641245D01*
X168894035Y-39644965D01*
X168919932Y-39650691D01*
X168948819Y-39658854D01*
X168956045Y-39661042D01*
X169060356Y-39700394D01*
X169154532Y-39751217D01*
X169237713Y-39812447D01*
X169309037Y-39883019D01*
X169367642Y-39961871D01*
X169412667Y-40047938D01*
X169443251Y-40140157D01*
X169458533Y-40237463D01*
X169460186Y-40283638D01*
X169456063Y-40366211D01*
X169443110Y-40439526D01*
X169419969Y-40509519D01*
X169397057Y-40559567D01*
X169342169Y-40650047D01*
X169274276Y-40730113D01*
X169194241Y-40799066D01*
X169102926Y-40856212D01*
X169001193Y-40900852D01*
X168956567Y-40915410D01*
X168894616Y-40929319D01*
X168822280Y-40938476D01*
X168745506Y-40942615D01*
X168670237Y-40941466D01*
X168602418Y-40934760D01*
X168586865Y-40932098D01*
X168483005Y-40904850D01*
X168387192Y-40864757D01*
X168300315Y-40813094D01*
X168223263Y-40751141D01*
X168156923Y-40680174D01*
X168102183Y-40601472D01*
X168059932Y-40516312D01*
X168031058Y-40425973D01*
X168016448Y-40331731D01*
X168016992Y-40234865D01*
X168033577Y-40136653D01*
X168033683Y-40136233D01*
X168064906Y-40046520D01*
X168111200Y-39960985D01*
X168170836Y-39881692D01*
X168242084Y-39810704D01*
X168323214Y-39750087D01*
X168388032Y-39713399D01*
X168446123Y-39686286D01*
X168498257Y-39666270D01*
X168548949Y-39652384D01*
X168602711Y-39643660D01*
X168664057Y-39639132D01*
X168737501Y-39637831D01*
X168740667Y-39637833D01*
G36*
X172486954Y-38355904D02*
G01*
X172498639Y-38357232D01*
X172517532Y-38358287D01*
X172540680Y-38358937D01*
X172557611Y-38359080D01*
X172612393Y-38359080D01*
X172683976Y-38483270D01*
X172755560Y-38607461D01*
X172755560Y-41219120D01*
X172852080Y-41219120D01*
X172852080Y-41167610D01*
X172852331Y-41141749D01*
X172854140Y-41123859D01*
X172859090Y-41112465D01*
X172868760Y-41106092D01*
X172884734Y-41103262D01*
X172908593Y-41102501D01*
X172921930Y-41102441D01*
X172974000Y-41102280D01*
X172974000Y-41049727D01*
X172974307Y-41022174D01*
X172976283Y-41003095D01*
X172981503Y-40990934D01*
X172991544Y-40984132D01*
X173007984Y-40981134D01*
X173032401Y-40980381D01*
X173044250Y-40980360D01*
X173095920Y-40980360D01*
X173095920Y-40928036D01*
X173096561Y-40899796D01*
X173098443Y-40880323D01*
X173101499Y-40870241D01*
X173102016Y-40869616D01*
X173110750Y-40866421D01*
X173129153Y-40864382D01*
X173156791Y-40863540D01*
X173162809Y-40863520D01*
X173217507Y-40863520D01*
X173218943Y-40806370D01*
X173220380Y-40749220D01*
X173339440Y-40746360D01*
X173342300Y-40627300D01*
X173401990Y-40625868D01*
X173461680Y-40624437D01*
X173461680Y-40507920D01*
X173578520Y-40507920D01*
X173578520Y-40391080D01*
X173700440Y-40391080D01*
X173700440Y-40269160D01*
X173822360Y-40269160D01*
X173822360Y-40147240D01*
X173939200Y-40147240D01*
X173939200Y-40030400D01*
X173997458Y-40030400D01*
X174055717Y-40030399D01*
X174057148Y-39970710D01*
X174058580Y-39911020D01*
X174115730Y-39909583D01*
X174172880Y-39908147D01*
X174172880Y-39857179D01*
X174173048Y-39828860D01*
X174174496Y-39809232D01*
X174178632Y-39796825D01*
X174186867Y-39790170D01*
X174200611Y-39787798D01*
X174221275Y-39788241D01*
X174238075Y-39789278D01*
X174292358Y-39792736D01*
X174290762Y-39741571D01*
X174290068Y-39713300D01*
X174290992Y-39693628D01*
X174294947Y-39680996D01*
X174303349Y-39673846D01*
X174317612Y-39670617D01*
X174339148Y-39669753D01*
X174355938Y-39669720D01*
X174411640Y-39669720D01*
X174411640Y-39618586D01*
X174411809Y-39590556D01*
X174413259Y-39571116D01*
X174417404Y-39558693D01*
X174425655Y-39551717D01*
X174439427Y-39548617D01*
X174460132Y-39547823D01*
X174475318Y-39547800D01*
X174528480Y-39547800D01*
X174528479Y-39499206D01*
X174528676Y-39471767D01*
X174530259Y-39452889D01*
X174534723Y-39440969D01*
X174543560Y-39434410D01*
X174558263Y-39431610D01*
X174580324Y-39430969D01*
X174592158Y-39430960D01*
X174645320Y-39430960D01*
X174645320Y-39382521D01*
X174645834Y-39356750D01*
X174647581Y-39338892D01*
X174650870Y-39326744D01*
X174653908Y-39320975D01*
X174658162Y-39315009D01*
X174662894Y-39311353D01*
X174670293Y-39309650D01*
X174682549Y-39309540D01*
X174701851Y-39310665D01*
X174712328Y-39311401D01*
X174762160Y-39314934D01*
X174762329Y-39264997D01*
X174762886Y-39236487D01*
X174765294Y-39216587D01*
X174770991Y-39203753D01*
X174781418Y-39196443D01*
X174798016Y-39193113D01*
X174822224Y-39192222D01*
X174830284Y-39192200D01*
X174879000Y-39192200D01*
X174879169Y-39145210D01*
X174879798Y-39117369D01*
X174882473Y-39098104D01*
X174888721Y-39085842D01*
X174900071Y-39079012D01*
X174918053Y-39076043D01*
X174944196Y-39075362D01*
X174947124Y-39075360D01*
X174995840Y-39075360D01*
X174996000Y-39028370D01*
X174996333Y-39005594D01*
X174997499Y-38990385D01*
X175000025Y-38980155D01*
X175004441Y-38972315D01*
X175008456Y-38967409D01*
X175014907Y-38960764D01*
X175021659Y-38956647D01*
X175031225Y-38954456D01*
X175046119Y-38953588D01*
X175066716Y-38953439D01*
X175112680Y-38953440D01*
X175112680Y-38908670D01*
X175112883Y-38886914D01*
X175113922Y-38872682D01*
X175116440Y-38863337D01*
X175121079Y-38856244D01*
X175126927Y-38850250D01*
X175134639Y-38843606D01*
X175142566Y-38839554D01*
X175153422Y-38837460D01*
X175169917Y-38836690D01*
X175185347Y-38836600D01*
X175229520Y-38836600D01*
X175229520Y-38791830D01*
X175229723Y-38770074D01*
X175230762Y-38755842D01*
X175233280Y-38746497D01*
X175237919Y-38739404D01*
X175243767Y-38733410D01*
X175251479Y-38726766D01*
X175259406Y-38722714D01*
X175270262Y-38720620D01*
X175286757Y-38719850D01*
X175302187Y-38719759D01*
X175346360Y-38719760D01*
X175346508Y-38675310D01*
X175346802Y-38653554D01*
X175347972Y-38639158D01*
X175350713Y-38629324D01*
X175355722Y-38621251D01*
X175361677Y-38614350D01*
X175376696Y-38597840D01*
X175493680Y-38597840D01*
X175493680Y-38660389D01*
X175493604Y-38686562D01*
X175493121Y-38704618D01*
X175491850Y-38716601D01*
X175489408Y-38724553D01*
X175485413Y-38730518D01*
X175479483Y-38736539D01*
X175479432Y-38736589D01*
X175471720Y-38743233D01*
X175463793Y-38747285D01*
X175452937Y-38749379D01*
X175436442Y-38750149D01*
X175421012Y-38750240D01*
X175376840Y-38750240D01*
X175376840Y-38811200D01*
X175407320Y-38811200D01*
X175407320Y-38936994D01*
X175389075Y-38950909D01*
X175379443Y-38957717D01*
X175370651Y-38961673D01*
X175359726Y-38963347D01*
X175343692Y-38963309D01*
X175328115Y-38962583D01*
X175285400Y-38960341D01*
X175285400Y-39029640D01*
X175315880Y-39029640D01*
X175315880Y-39092184D01*
X175315879Y-39154729D01*
X175300845Y-39165844D01*
X175291975Y-39171331D01*
X175281740Y-39174681D01*
X175267432Y-39176387D01*
X175246344Y-39176942D01*
X175239885Y-39176959D01*
X175193960Y-39176960D01*
X175193960Y-39215060D01*
X175194118Y-39234439D01*
X175195068Y-39245798D01*
X175197524Y-39251279D01*
X175202199Y-39253019D01*
X175206660Y-39253160D01*
X175219360Y-39253160D01*
X175219360Y-39318785D01*
X175219359Y-39384411D01*
X175201517Y-39395438D01*
X175191748Y-39400748D01*
X175181830Y-39403766D01*
X175168905Y-39404866D01*
X175150116Y-39404423D01*
X175138017Y-39403764D01*
X175092360Y-39401062D01*
X175092360Y-39446491D01*
X175092462Y-39468051D01*
X175093136Y-39481412D01*
X175094929Y-39488536D01*
X175098390Y-39491384D01*
X175104067Y-39491918D01*
X175105060Y-39491920D01*
X175117760Y-39491920D01*
X175117760Y-39557375D01*
X175117542Y-39587860D01*
X175115983Y-39609647D01*
X175111728Y-39624196D01*
X175103419Y-39632968D01*
X175089698Y-39637425D01*
X175069209Y-39639029D01*
X175041738Y-39639240D01*
X174990760Y-39639240D01*
X174990760Y-39687500D01*
X174990848Y-39709857D01*
X174991446Y-39723957D01*
X174993056Y-39731703D01*
X174996177Y-39734999D01*
X175001311Y-39735747D01*
X175003460Y-39735760D01*
X175016160Y-39735760D01*
X175016160Y-39871926D01*
X175000161Y-39877503D01*
X174988106Y-39879940D01*
X174969087Y-39881837D01*
X174946296Y-39882924D01*
X174934121Y-39883080D01*
X174884080Y-39883080D01*
X174884080Y-39989760D01*
X174909480Y-39989760D01*
X174909480Y-40130846D01*
X174886534Y-40134287D01*
X174870651Y-40135483D01*
X174848703Y-40135625D01*
X174824731Y-40134712D01*
X174817954Y-40134249D01*
X174772320Y-40130771D01*
X174772320Y-40264080D01*
X174640240Y-40264080D01*
X174640240Y-40401240D01*
X174508160Y-40401240D01*
X174508160Y-40533320D01*
X174371000Y-40533320D01*
X174371000Y-40664019D01*
X174347430Y-40667249D01*
X174330732Y-40668809D01*
X174308330Y-40669956D01*
X174284679Y-40670470D01*
X174281390Y-40670480D01*
X174238920Y-40670480D01*
X174238920Y-40802560D01*
X174101760Y-40802560D01*
X174101760Y-40939720D01*
X173969680Y-40939720D01*
X173969680Y-41071800D01*
X173832520Y-41071800D01*
X173832520Y-41208960D01*
X173700440Y-41208960D01*
X173700440Y-41336867D01*
X173955710Y-41333891D01*
X173994856Y-41333472D01*
X174043168Y-41333017D01*
X174099652Y-41332534D01*
X174163314Y-41332028D01*
X174233160Y-41331508D01*
X174308196Y-41330979D01*
X174387429Y-41330449D01*
X174469863Y-41329923D01*
X174554506Y-41329410D01*
X174640363Y-41328915D01*
X174726441Y-41328446D01*
X174811744Y-41328009D01*
X174837390Y-41327883D01*
X175463801Y-41324851D01*
X175585420Y-41394236D01*
X175707040Y-41463621D01*
X175707040Y-41531870D01*
X175706951Y-41556884D01*
X175706707Y-41577793D01*
X175706344Y-41592739D01*
X175705895Y-41599864D01*
X175705770Y-41600206D01*
X175699904Y-41600297D01*
X175684358Y-41600449D01*
X175659614Y-41600659D01*
X175626151Y-41600924D01*
X175584449Y-41601240D01*
X175534989Y-41601605D01*
X175478251Y-41602015D01*
X175414715Y-41602467D01*
X175344862Y-41602958D01*
X175269173Y-41603485D01*
X175188126Y-41604044D01*
X175102204Y-41604633D01*
X175011885Y-41605249D01*
X174917651Y-41605887D01*
X174819981Y-41606546D01*
X174719356Y-41607222D01*
X174616257Y-41607911D01*
X174511163Y-41608610D01*
X174404555Y-41609318D01*
X174296913Y-41610029D01*
X174188718Y-41610741D01*
X174080450Y-41611452D01*
X173972589Y-41612157D01*
X173865615Y-41612853D01*
X173760009Y-41613538D01*
X173656252Y-41614209D01*
X173554822Y-41614861D01*
X173456202Y-41615492D01*
X173360871Y-41616100D01*
X173269309Y-41616679D01*
X173181997Y-41617229D01*
X173099414Y-41617744D01*
X173022043Y-41618223D01*
X172950361Y-41618661D01*
X172884851Y-41619057D01*
X172825992Y-41619406D01*
X172774265Y-41619706D01*
X172730150Y-41619953D01*
X172694127Y-41620144D01*
X172666676Y-41620276D01*
X172648279Y-41620346D01*
X172642530Y-41620357D01*
X172471080Y-41620440D01*
X172471080Y-38352729D01*
X172486954Y-38355904D01*
G37*
X172486954Y-38355904D02*
X172498639Y-38357232D01*
X172517532Y-38358287D01*
X172540680Y-38358937D01*
X172557611Y-38359080D01*
X172612393Y-38359080D01*
X172683976Y-38483270D01*
X172755560Y-38607461D01*
X172755560Y-41219120D01*
X172852080Y-41219120D01*
X172852080Y-41167610D01*
X172852331Y-41141749D01*
X172854140Y-41123859D01*
X172859090Y-41112465D01*
X172868760Y-41106092D01*
X172884734Y-41103262D01*
X172908593Y-41102501D01*
X172921930Y-41102441D01*
X172974000Y-41102280D01*
X172974000Y-41049727D01*
X172974307Y-41022174D01*
X172976283Y-41003095D01*
X172981503Y-40990934D01*
X172991544Y-40984132D01*
X173007984Y-40981134D01*
X173032401Y-40980381D01*
X173044250Y-40980360D01*
X173095920Y-40980360D01*
X173095920Y-40928036D01*
X173096561Y-40899796D01*
X173098443Y-40880323D01*
X173101499Y-40870241D01*
X173102016Y-40869616D01*
X173110750Y-40866421D01*
X173129153Y-40864382D01*
X173156791Y-40863540D01*
X173162809Y-40863520D01*
X173217507Y-40863520D01*
X173218943Y-40806370D01*
X173220380Y-40749220D01*
X173339440Y-40746360D01*
X173342300Y-40627300D01*
X173401990Y-40625868D01*
X173461680Y-40624437D01*
X173461680Y-40507920D01*
X173578520Y-40507920D01*
X173578520Y-40391080D01*
X173700440Y-40391080D01*
X173700440Y-40269160D01*
X173822360Y-40269160D01*
X173822360Y-40147240D01*
X173939200Y-40147240D01*
X173939200Y-40030400D01*
X173997458Y-40030400D01*
X174055717Y-40030399D01*
X174057148Y-39970710D01*
X174058580Y-39911020D01*
X174115730Y-39909583D01*
X174172880Y-39908147D01*
X174172880Y-39857179D01*
X174173048Y-39828860D01*
X174174496Y-39809232D01*
X174178632Y-39796825D01*
X174186867Y-39790170D01*
X174200611Y-39787798D01*
X174221275Y-39788241D01*
X174238075Y-39789278D01*
X174292358Y-39792736D01*
X174290762Y-39741571D01*
X174290068Y-39713300D01*
X174290992Y-39693628D01*
X174294947Y-39680996D01*
X174303349Y-39673846D01*
X174317612Y-39670617D01*
X174339148Y-39669753D01*
X174355938Y-39669720D01*
X174411640Y-39669720D01*
X174411640Y-39618586D01*
X174411809Y-39590556D01*
X174413259Y-39571116D01*
X174417404Y-39558693D01*
X174425655Y-39551717D01*
X174439427Y-39548617D01*
X174460132Y-39547823D01*
X174475318Y-39547800D01*
X174528480Y-39547800D01*
X174528479Y-39499206D01*
X174528676Y-39471767D01*
X174530259Y-39452889D01*
X174534723Y-39440969D01*
X174543560Y-39434410D01*
X174558263Y-39431610D01*
X174580324Y-39430969D01*
X174592158Y-39430960D01*
X174645320Y-39430960D01*
X174645320Y-39382521D01*
X174645834Y-39356750D01*
X174647581Y-39338892D01*
X174650870Y-39326744D01*
X174653908Y-39320975D01*
X174658162Y-39315009D01*
X174662894Y-39311353D01*
X174670293Y-39309650D01*
X174682549Y-39309540D01*
X174701851Y-39310665D01*
X174712328Y-39311401D01*
X174762160Y-39314934D01*
X174762329Y-39264997D01*
X174762886Y-39236487D01*
X174765294Y-39216587D01*
X174770991Y-39203753D01*
X174781418Y-39196443D01*
X174798016Y-39193113D01*
X174822224Y-39192222D01*
X174830284Y-39192200D01*
X174879000Y-39192200D01*
X174879169Y-39145210D01*
X174879798Y-39117369D01*
X174882473Y-39098104D01*
X174888721Y-39085842D01*
X174900071Y-39079012D01*
X174918053Y-39076043D01*
X174944196Y-39075362D01*
X174947124Y-39075360D01*
X174995840Y-39075360D01*
X174996000Y-39028370D01*
X174996333Y-39005594D01*
X174997499Y-38990385D01*
X175000025Y-38980155D01*
X175004441Y-38972315D01*
X175008456Y-38967409D01*
X175014907Y-38960764D01*
X175021659Y-38956647D01*
X175031225Y-38954456D01*
X175046119Y-38953588D01*
X175066716Y-38953439D01*
X175112680Y-38953440D01*
X175112680Y-38908670D01*
X175112883Y-38886914D01*
X175113922Y-38872682D01*
X175116440Y-38863337D01*
X175121079Y-38856244D01*
X175126927Y-38850250D01*
X175134639Y-38843606D01*
X175142566Y-38839554D01*
X175153422Y-38837460D01*
X175169917Y-38836690D01*
X175185347Y-38836600D01*
X175229520Y-38836600D01*
X175229520Y-38791830D01*
X175229723Y-38770074D01*
X175230762Y-38755842D01*
X175233280Y-38746497D01*
X175237919Y-38739404D01*
X175243767Y-38733410D01*
X175251479Y-38726766D01*
X175259406Y-38722714D01*
X175270262Y-38720620D01*
X175286757Y-38719850D01*
X175302187Y-38719759D01*
X175346360Y-38719760D01*
X175346508Y-38675310D01*
X175346802Y-38653554D01*
X175347972Y-38639158D01*
X175350713Y-38629324D01*
X175355722Y-38621251D01*
X175361677Y-38614350D01*
X175376696Y-38597840D01*
X175493680Y-38597840D01*
X175493680Y-38660389D01*
X175493604Y-38686562D01*
X175493121Y-38704618D01*
X175491850Y-38716601D01*
X175489408Y-38724553D01*
X175485413Y-38730518D01*
X175479483Y-38736539D01*
X175479432Y-38736589D01*
X175471720Y-38743233D01*
X175463793Y-38747285D01*
X175452937Y-38749379D01*
X175436442Y-38750149D01*
X175421012Y-38750240D01*
X175376840Y-38750240D01*
X175376840Y-38811200D01*
X175407320Y-38811200D01*
X175407320Y-38936994D01*
X175389075Y-38950909D01*
X175379443Y-38957717D01*
X175370651Y-38961673D01*
X175359726Y-38963347D01*
X175343692Y-38963309D01*
X175328115Y-38962583D01*
X175285400Y-38960341D01*
X175285400Y-39029640D01*
X175315880Y-39029640D01*
X175315880Y-39092184D01*
X175315879Y-39154729D01*
X175300845Y-39165844D01*
X175291975Y-39171331D01*
X175281740Y-39174681D01*
X175267432Y-39176387D01*
X175246344Y-39176942D01*
X175239885Y-39176959D01*
X175193960Y-39176960D01*
X175193960Y-39215060D01*
X175194118Y-39234439D01*
X175195068Y-39245798D01*
X175197524Y-39251279D01*
X175202199Y-39253019D01*
X175206660Y-39253160D01*
X175219360Y-39253160D01*
X175219360Y-39318785D01*
X175219359Y-39384411D01*
X175201517Y-39395438D01*
X175191748Y-39400748D01*
X175181830Y-39403766D01*
X175168905Y-39404866D01*
X175150116Y-39404423D01*
X175138017Y-39403764D01*
X175092360Y-39401062D01*
X175092360Y-39446491D01*
X175092462Y-39468051D01*
X175093136Y-39481412D01*
X175094929Y-39488536D01*
X175098390Y-39491384D01*
X175104067Y-39491918D01*
X175105060Y-39491920D01*
X175117760Y-39491920D01*
X175117760Y-39557375D01*
X175117542Y-39587860D01*
X175115983Y-39609647D01*
X175111728Y-39624196D01*
X175103419Y-39632968D01*
X175089698Y-39637425D01*
X175069209Y-39639029D01*
X175041738Y-39639240D01*
X174990760Y-39639240D01*
X174990760Y-39687500D01*
X174990848Y-39709857D01*
X174991446Y-39723957D01*
X174993056Y-39731703D01*
X174996177Y-39734999D01*
X175001311Y-39735747D01*
X175003460Y-39735760D01*
X175016160Y-39735760D01*
X175016160Y-39871926D01*
X175000161Y-39877503D01*
X174988106Y-39879940D01*
X174969087Y-39881837D01*
X174946296Y-39882924D01*
X174934121Y-39883080D01*
X174884080Y-39883080D01*
X174884080Y-39989760D01*
X174909480Y-39989760D01*
X174909480Y-40130846D01*
X174886534Y-40134287D01*
X174870651Y-40135483D01*
X174848703Y-40135625D01*
X174824731Y-40134712D01*
X174817954Y-40134249D01*
X174772320Y-40130771D01*
X174772320Y-40264080D01*
X174640240Y-40264080D01*
X174640240Y-40401240D01*
X174508160Y-40401240D01*
X174508160Y-40533320D01*
X174371000Y-40533320D01*
X174371000Y-40664019D01*
X174347430Y-40667249D01*
X174330732Y-40668809D01*
X174308330Y-40669956D01*
X174284679Y-40670470D01*
X174281390Y-40670480D01*
X174238920Y-40670480D01*
X174238920Y-40802560D01*
X174101760Y-40802560D01*
X174101760Y-40939720D01*
X173969680Y-40939720D01*
X173969680Y-41071800D01*
X173832520Y-41071800D01*
X173832520Y-41208960D01*
X173700440Y-41208960D01*
X173700440Y-41336867D01*
X173955710Y-41333891D01*
X173994856Y-41333472D01*
X174043168Y-41333017D01*
X174099652Y-41332534D01*
X174163314Y-41332028D01*
X174233160Y-41331508D01*
X174308196Y-41330979D01*
X174387429Y-41330449D01*
X174469863Y-41329923D01*
X174554506Y-41329410D01*
X174640363Y-41328915D01*
X174726441Y-41328446D01*
X174811744Y-41328009D01*
X174837390Y-41327883D01*
X175463801Y-41324851D01*
X175585420Y-41394236D01*
X175707040Y-41463621D01*
X175707040Y-41531870D01*
X175706951Y-41556884D01*
X175706707Y-41577793D01*
X175706344Y-41592739D01*
X175705895Y-41599864D01*
X175705770Y-41600206D01*
X175699904Y-41600297D01*
X175684358Y-41600449D01*
X175659614Y-41600659D01*
X175626151Y-41600924D01*
X175584449Y-41601240D01*
X175534989Y-41601605D01*
X175478251Y-41602015D01*
X175414715Y-41602467D01*
X175344862Y-41602958D01*
X175269173Y-41603485D01*
X175188126Y-41604044D01*
X175102204Y-41604633D01*
X175011885Y-41605249D01*
X174917651Y-41605887D01*
X174819981Y-41606546D01*
X174719356Y-41607222D01*
X174616257Y-41607911D01*
X174511163Y-41608610D01*
X174404555Y-41609318D01*
X174296913Y-41610029D01*
X174188718Y-41610741D01*
X174080450Y-41611452D01*
X173972589Y-41612157D01*
X173865615Y-41612853D01*
X173760009Y-41613538D01*
X173656252Y-41614209D01*
X173554822Y-41614861D01*
X173456202Y-41615492D01*
X173360871Y-41616100D01*
X173269309Y-41616679D01*
X173181997Y-41617229D01*
X173099414Y-41617744D01*
X173022043Y-41618223D01*
X172950361Y-41618661D01*
X172884851Y-41619057D01*
X172825992Y-41619406D01*
X172774265Y-41619706D01*
X172730150Y-41619953D01*
X172694127Y-41620144D01*
X172666676Y-41620276D01*
X172648279Y-41620346D01*
X172642530Y-41620357D01*
X172471080Y-41620440D01*
X172471080Y-38352729D01*
X172486954Y-38355904D01*
D11*
%TO.C,Button9*%
X163195000Y-120650000D02*
X163195000Y-106680000D01*
X177165000Y-120650000D02*
X163195000Y-120650000D01*
X177165000Y-106680000D02*
X177165000Y-120650000D01*
X163195000Y-106680000D02*
X177165000Y-106680000D01*
%TO.C,Pin Header*%
X139640000Y-94802000D02*
X142300000Y-94802000D01*
X139640000Y-46482000D02*
X139640000Y-94802000D01*
X142300000Y-46482000D02*
X142300000Y-94802000D01*
X139640000Y-46482000D02*
X142300000Y-46482000D01*
X139640000Y-45212000D02*
X139640000Y-43882000D01*
X139640000Y-43882000D02*
X140970000Y-43882000D01*
%TO.C,Button3*%
X163195000Y-80010000D02*
X163195000Y-66040000D01*
X177165000Y-80010000D02*
X163195000Y-80010000D01*
X177165000Y-66040000D02*
X177165000Y-80010000D01*
X163195000Y-66040000D02*
X177165000Y-66040000D01*
%TO.C,Button6*%
X163195000Y-86360000D02*
X177165000Y-86360000D01*
X177165000Y-86360000D02*
X177165000Y-100330000D01*
X177165000Y-100330000D02*
X163195000Y-100330000D01*
X163195000Y-100330000D02*
X163195000Y-86360000D01*
%TO.C,Pin Header*%
X157420000Y-94675000D02*
X160080000Y-94675000D01*
X157420000Y-46355000D02*
X157420000Y-94675000D01*
X160080000Y-46355000D02*
X160080000Y-94675000D01*
X157420000Y-46355000D02*
X160080000Y-46355000D01*
X157420000Y-45085000D02*
X157420000Y-43755000D01*
X157420000Y-43755000D02*
X158750000Y-43755000D01*
%TO.C,Button0*%
X163195000Y-59690000D02*
X163195000Y-45720000D01*
X177165000Y-59690000D02*
X163195000Y-59690000D01*
X177165000Y-45720000D02*
X177165000Y-59690000D01*
X163195000Y-45720000D02*
X177165000Y-45720000D01*
%TO.C,Button4*%
X123825000Y-100330000D02*
X123825000Y-86360000D01*
X137795000Y-100330000D02*
X123825000Y-100330000D01*
X137795000Y-86360000D02*
X137795000Y-100330000D01*
X123825000Y-86360000D02*
X137795000Y-86360000D01*
%TO.C,Button1*%
X123825000Y-66040000D02*
X137795000Y-66040000D01*
X137795000Y-66040000D02*
X137795000Y-80010000D01*
X137795000Y-80010000D02*
X123825000Y-80010000D01*
X123825000Y-80010000D02*
X123825000Y-66040000D01*
%TO.C,Button5*%
X143510000Y-100330000D02*
X143510000Y-86360000D01*
X157480000Y-100330000D02*
X143510000Y-100330000D01*
X157480000Y-86360000D02*
X157480000Y-100330000D01*
X143510000Y-86360000D02*
X157480000Y-86360000D01*
%TO.C,Rotary 0*%
X130215000Y-52593000D02*
X130215000Y-53593000D01*
X130715000Y-53093000D02*
X129715000Y-53093000D01*
X126715000Y-59193000D02*
X124315000Y-59193000D01*
X131515000Y-59193000D02*
X128915000Y-59193000D01*
X136115000Y-59193000D02*
X133715000Y-59193000D01*
X134315000Y-45893000D02*
X134015000Y-45593000D01*
X134315000Y-45293000D02*
X134315000Y-45893000D01*
X134015000Y-45593000D02*
X134315000Y-45293000D01*
X136115000Y-46993000D02*
X124315000Y-46993000D01*
X136115000Y-51093000D02*
X136115000Y-46993000D01*
X124315000Y-51093000D02*
X124315000Y-46993000D01*
X124315000Y-59193000D02*
X124315000Y-55093000D01*
X136115000Y-55093000D02*
X136115000Y-59193000D01*
X133215000Y-53093000D02*
G75*
G03*
X133215000Y-53093000I-3000000J0D01*
G01*
%TO.C,Button2*%
X143510000Y-80010000D02*
X143510000Y-66040000D01*
X157480000Y-80010000D02*
X143510000Y-80010000D01*
X157480000Y-66040000D02*
X157480000Y-80010000D01*
X143510000Y-66040000D02*
X157480000Y-66040000D01*
%TO.C,Rotary 1*%
X129707000Y-136540000D02*
X129707000Y-137540000D01*
X130207000Y-137040000D02*
X129207000Y-137040000D01*
X126207000Y-143140000D02*
X123807000Y-143140000D01*
X131007000Y-143140000D02*
X128407000Y-143140000D01*
X135607000Y-143140000D02*
X133207000Y-143140000D01*
X133807000Y-129840000D02*
X133507000Y-129540000D01*
X133807000Y-129240000D02*
X133807000Y-129840000D01*
X133507000Y-129540000D02*
X133807000Y-129240000D01*
X135607000Y-130940000D02*
X123807000Y-130940000D01*
X135607000Y-135040000D02*
X135607000Y-130940000D01*
X123807000Y-135040000D02*
X123807000Y-130940000D01*
X123807000Y-143140000D02*
X123807000Y-139040000D01*
X135607000Y-139040000D02*
X135607000Y-143140000D01*
X132707000Y-137040000D02*
G75*
G03*
X132707000Y-137040000I-3000000J0D01*
G01*
%TO.C,Rotary 3*%
X171363000Y-136540000D02*
X171363000Y-137540000D01*
X171863000Y-137040000D02*
X170863000Y-137040000D01*
X167863000Y-143140000D02*
X165463000Y-143140000D01*
X172663000Y-143140000D02*
X170063000Y-143140000D01*
X177263000Y-143140000D02*
X174863000Y-143140000D01*
X175463000Y-129840000D02*
X175163000Y-129540000D01*
X175463000Y-129240000D02*
X175463000Y-129840000D01*
X175163000Y-129540000D02*
X175463000Y-129240000D01*
X177263000Y-130940000D02*
X165463000Y-130940000D01*
X177263000Y-135040000D02*
X177263000Y-130940000D01*
X165463000Y-135040000D02*
X165463000Y-130940000D01*
X165463000Y-143140000D02*
X165463000Y-139040000D01*
X177263000Y-139040000D02*
X177263000Y-143140000D01*
X174363000Y-137040000D02*
G75*
G03*
X174363000Y-137040000I-3000000J0D01*
G01*
%TO.C,Button7*%
X123825000Y-120650000D02*
X123825000Y-106680000D01*
X137795000Y-120650000D02*
X123825000Y-120650000D01*
X137795000Y-106680000D02*
X137795000Y-120650000D01*
X123825000Y-106680000D02*
X137795000Y-106680000D01*
%TO.C,Button8*%
X143510000Y-106680000D02*
X157480000Y-106680000D01*
X157480000Y-106680000D02*
X157480000Y-120650000D01*
X157480000Y-120650000D02*
X143510000Y-120650000D01*
X143510000Y-120650000D02*
X143510000Y-106680000D01*
%TO.C,Rotary 2*%
X153493082Y-137016945D02*
G75*
G03*
X153493082Y-137016945I-3000000J0D01*
G01*
X156393082Y-139016945D02*
X156393082Y-143116945D01*
X144593082Y-143116945D02*
X144593082Y-139016945D01*
X144593082Y-135016945D02*
X144593082Y-130916945D01*
X156393082Y-135016945D02*
X156393082Y-130916945D01*
X156393082Y-130916945D02*
X144593082Y-130916945D01*
X154293082Y-129516945D02*
X154593082Y-129216945D01*
X154593082Y-129216945D02*
X154593082Y-129816945D01*
X154593082Y-129816945D02*
X154293082Y-129516945D01*
X156393082Y-143116945D02*
X153993082Y-143116945D01*
X151793082Y-143116945D02*
X149193082Y-143116945D01*
X146993082Y-143116945D02*
X144593082Y-143116945D01*
X150993082Y-137016945D02*
X149993082Y-137016945D01*
X150493082Y-136516945D02*
X150493082Y-137516945D01*
%TO.C,Reset*%
D10*
X148494904Y-53538380D02*
X148161571Y-53062190D01*
X147923476Y-53538380D02*
X147923476Y-52538380D01*
X148304428Y-52538380D01*
X148399666Y-52586000D01*
X148447285Y-52633619D01*
X148494904Y-52728857D01*
X148494904Y-52871714D01*
X148447285Y-52966952D01*
X148399666Y-53014571D01*
X148304428Y-53062190D01*
X147923476Y-53062190D01*
X149304428Y-53490761D02*
X149209190Y-53538380D01*
X149018714Y-53538380D01*
X148923476Y-53490761D01*
X148875857Y-53395523D01*
X148875857Y-53014571D01*
X148923476Y-52919333D01*
X149018714Y-52871714D01*
X149209190Y-52871714D01*
X149304428Y-52919333D01*
X149352047Y-53014571D01*
X149352047Y-53109809D01*
X148875857Y-53205047D01*
X149733000Y-53490761D02*
X149828238Y-53538380D01*
X150018714Y-53538380D01*
X150113952Y-53490761D01*
X150161571Y-53395523D01*
X150161571Y-53347904D01*
X150113952Y-53252666D01*
X150018714Y-53205047D01*
X149875857Y-53205047D01*
X149780619Y-53157428D01*
X149733000Y-53062190D01*
X149733000Y-53014571D01*
X149780619Y-52919333D01*
X149875857Y-52871714D01*
X150018714Y-52871714D01*
X150113952Y-52919333D01*
X150971095Y-53490761D02*
X150875857Y-53538380D01*
X150685380Y-53538380D01*
X150590142Y-53490761D01*
X150542523Y-53395523D01*
X150542523Y-53014571D01*
X150590142Y-52919333D01*
X150685380Y-52871714D01*
X150875857Y-52871714D01*
X150971095Y-52919333D01*
X151018714Y-53014571D01*
X151018714Y-53109809D01*
X150542523Y-53205047D01*
X151304428Y-52871714D02*
X151685380Y-52871714D01*
X151447285Y-52538380D02*
X151447285Y-53395523D01*
X151494904Y-53490761D01*
X151590142Y-53538380D01*
X151685380Y-53538380D01*
%TO.C,Button9*%
X168100666Y-117530571D02*
X168243523Y-117578190D01*
X168291142Y-117625809D01*
X168338761Y-117721047D01*
X168338761Y-117863904D01*
X168291142Y-117959142D01*
X168243523Y-118006761D01*
X168148285Y-118054380D01*
X167767333Y-118054380D01*
X167767333Y-117054380D01*
X168100666Y-117054380D01*
X168195904Y-117102000D01*
X168243523Y-117149619D01*
X168291142Y-117244857D01*
X168291142Y-117340095D01*
X168243523Y-117435333D01*
X168195904Y-117482952D01*
X168100666Y-117530571D01*
X167767333Y-117530571D01*
X169195904Y-117387714D02*
X169195904Y-118054380D01*
X168767333Y-117387714D02*
X168767333Y-117911523D01*
X168814952Y-118006761D01*
X168910190Y-118054380D01*
X169053047Y-118054380D01*
X169148285Y-118006761D01*
X169195904Y-117959142D01*
X169529238Y-117387714D02*
X169910190Y-117387714D01*
X169672095Y-117054380D02*
X169672095Y-117911523D01*
X169719714Y-118006761D01*
X169814952Y-118054380D01*
X169910190Y-118054380D01*
X170100666Y-117387714D02*
X170481619Y-117387714D01*
X170243523Y-117054380D02*
X170243523Y-117911523D01*
X170291142Y-118006761D01*
X170386380Y-118054380D01*
X170481619Y-118054380D01*
X170957809Y-118054380D02*
X170862571Y-118006761D01*
X170814952Y-117959142D01*
X170767333Y-117863904D01*
X170767333Y-117578190D01*
X170814952Y-117482952D01*
X170862571Y-117435333D01*
X170957809Y-117387714D01*
X171100666Y-117387714D01*
X171195904Y-117435333D01*
X171243523Y-117482952D01*
X171291142Y-117578190D01*
X171291142Y-117863904D01*
X171243523Y-117959142D01*
X171195904Y-118006761D01*
X171100666Y-118054380D01*
X170957809Y-118054380D01*
X171719714Y-117387714D02*
X171719714Y-118054380D01*
X171719714Y-117482952D02*
X171767333Y-117435333D01*
X171862571Y-117387714D01*
X172005428Y-117387714D01*
X172100666Y-117435333D01*
X172148285Y-117530571D01*
X172148285Y-118054380D01*
X172672095Y-118054380D02*
X172862571Y-118054380D01*
X172957809Y-118006761D01*
X173005428Y-117959142D01*
X173100666Y-117816285D01*
X173148285Y-117625809D01*
X173148285Y-117244857D01*
X173100666Y-117149619D01*
X173053047Y-117102000D01*
X172957809Y-117054380D01*
X172767333Y-117054380D01*
X172672095Y-117102000D01*
X172624476Y-117149619D01*
X172576857Y-117244857D01*
X172576857Y-117482952D01*
X172624476Y-117578190D01*
X172672095Y-117625809D01*
X172767333Y-117673428D01*
X172957809Y-117673428D01*
X173053047Y-117625809D01*
X173100666Y-117578190D01*
X173148285Y-117482952D01*
%TO.C,Pin Header*%
X137041428Y-42997380D02*
X137041428Y-41997380D01*
X137422380Y-41997380D01*
X137517619Y-42045000D01*
X137565238Y-42092619D01*
X137612857Y-42187857D01*
X137612857Y-42330714D01*
X137565238Y-42425952D01*
X137517619Y-42473571D01*
X137422380Y-42521190D01*
X137041428Y-42521190D01*
X138041428Y-42997380D02*
X138041428Y-42330714D01*
X138041428Y-41997380D02*
X137993809Y-42045000D01*
X138041428Y-42092619D01*
X138089047Y-42045000D01*
X138041428Y-41997380D01*
X138041428Y-42092619D01*
X138517619Y-42330714D02*
X138517619Y-42997380D01*
X138517619Y-42425952D02*
X138565238Y-42378333D01*
X138660476Y-42330714D01*
X138803333Y-42330714D01*
X138898571Y-42378333D01*
X138946190Y-42473571D01*
X138946190Y-42997380D01*
X140184285Y-42997380D02*
X140184285Y-41997380D01*
X140184285Y-42473571D02*
X140755714Y-42473571D01*
X140755714Y-42997380D02*
X140755714Y-41997380D01*
X141612857Y-42949761D02*
X141517619Y-42997380D01*
X141327142Y-42997380D01*
X141231904Y-42949761D01*
X141184285Y-42854523D01*
X141184285Y-42473571D01*
X141231904Y-42378333D01*
X141327142Y-42330714D01*
X141517619Y-42330714D01*
X141612857Y-42378333D01*
X141660476Y-42473571D01*
X141660476Y-42568809D01*
X141184285Y-42664047D01*
X142517619Y-42997380D02*
X142517619Y-42473571D01*
X142470000Y-42378333D01*
X142374761Y-42330714D01*
X142184285Y-42330714D01*
X142089047Y-42378333D01*
X142517619Y-42949761D02*
X142422380Y-42997380D01*
X142184285Y-42997380D01*
X142089047Y-42949761D01*
X142041428Y-42854523D01*
X142041428Y-42759285D01*
X142089047Y-42664047D01*
X142184285Y-42616428D01*
X142422380Y-42616428D01*
X142517619Y-42568809D01*
X143422380Y-42997380D02*
X143422380Y-41997380D01*
X143422380Y-42949761D02*
X143327142Y-42997380D01*
X143136666Y-42997380D01*
X143041428Y-42949761D01*
X142993809Y-42902142D01*
X142946190Y-42806904D01*
X142946190Y-42521190D01*
X142993809Y-42425952D01*
X143041428Y-42378333D01*
X143136666Y-42330714D01*
X143327142Y-42330714D01*
X143422380Y-42378333D01*
X144279523Y-42949761D02*
X144184285Y-42997380D01*
X143993809Y-42997380D01*
X143898571Y-42949761D01*
X143850952Y-42854523D01*
X143850952Y-42473571D01*
X143898571Y-42378333D01*
X143993809Y-42330714D01*
X144184285Y-42330714D01*
X144279523Y-42378333D01*
X144327142Y-42473571D01*
X144327142Y-42568809D01*
X143850952Y-42664047D01*
X144755714Y-42997380D02*
X144755714Y-42330714D01*
X144755714Y-42521190D02*
X144803333Y-42425952D01*
X144850952Y-42378333D01*
X144946190Y-42330714D01*
X145041428Y-42330714D01*
%TO.C,Button3*%
X167846666Y-76890571D02*
X167989523Y-76938190D01*
X168037142Y-76985809D01*
X168084761Y-77081047D01*
X168084761Y-77223904D01*
X168037142Y-77319142D01*
X167989523Y-77366761D01*
X167894285Y-77414380D01*
X167513333Y-77414380D01*
X167513333Y-76414380D01*
X167846666Y-76414380D01*
X167941904Y-76462000D01*
X167989523Y-76509619D01*
X168037142Y-76604857D01*
X168037142Y-76700095D01*
X167989523Y-76795333D01*
X167941904Y-76842952D01*
X167846666Y-76890571D01*
X167513333Y-76890571D01*
X168941904Y-76747714D02*
X168941904Y-77414380D01*
X168513333Y-76747714D02*
X168513333Y-77271523D01*
X168560952Y-77366761D01*
X168656190Y-77414380D01*
X168799047Y-77414380D01*
X168894285Y-77366761D01*
X168941904Y-77319142D01*
X169275238Y-76747714D02*
X169656190Y-76747714D01*
X169418095Y-76414380D02*
X169418095Y-77271523D01*
X169465714Y-77366761D01*
X169560952Y-77414380D01*
X169656190Y-77414380D01*
X169846666Y-76747714D02*
X170227619Y-76747714D01*
X169989523Y-76414380D02*
X169989523Y-77271523D01*
X170037142Y-77366761D01*
X170132380Y-77414380D01*
X170227619Y-77414380D01*
X170703809Y-77414380D02*
X170608571Y-77366761D01*
X170560952Y-77319142D01*
X170513333Y-77223904D01*
X170513333Y-76938190D01*
X170560952Y-76842952D01*
X170608571Y-76795333D01*
X170703809Y-76747714D01*
X170846666Y-76747714D01*
X170941904Y-76795333D01*
X170989523Y-76842952D01*
X171037142Y-76938190D01*
X171037142Y-77223904D01*
X170989523Y-77319142D01*
X170941904Y-77366761D01*
X170846666Y-77414380D01*
X170703809Y-77414380D01*
X171465714Y-76747714D02*
X171465714Y-77414380D01*
X171465714Y-76842952D02*
X171513333Y-76795333D01*
X171608571Y-76747714D01*
X171751428Y-76747714D01*
X171846666Y-76795333D01*
X171894285Y-76890571D01*
X171894285Y-77414380D01*
X172275238Y-76414380D02*
X172894285Y-76414380D01*
X172560952Y-76795333D01*
X172703809Y-76795333D01*
X172799047Y-76842952D01*
X172846666Y-76890571D01*
X172894285Y-76985809D01*
X172894285Y-77223904D01*
X172846666Y-77319142D01*
X172799047Y-77366761D01*
X172703809Y-77414380D01*
X172418095Y-77414380D01*
X172322857Y-77366761D01*
X172275238Y-77319142D01*
%TO.C,Button6*%
X168100666Y-97210571D02*
X168243523Y-97258190D01*
X168291142Y-97305809D01*
X168338761Y-97401047D01*
X168338761Y-97543904D01*
X168291142Y-97639142D01*
X168243523Y-97686761D01*
X168148285Y-97734380D01*
X167767333Y-97734380D01*
X167767333Y-96734380D01*
X168100666Y-96734380D01*
X168195904Y-96782000D01*
X168243523Y-96829619D01*
X168291142Y-96924857D01*
X168291142Y-97020095D01*
X168243523Y-97115333D01*
X168195904Y-97162952D01*
X168100666Y-97210571D01*
X167767333Y-97210571D01*
X169195904Y-97067714D02*
X169195904Y-97734380D01*
X168767333Y-97067714D02*
X168767333Y-97591523D01*
X168814952Y-97686761D01*
X168910190Y-97734380D01*
X169053047Y-97734380D01*
X169148285Y-97686761D01*
X169195904Y-97639142D01*
X169529238Y-97067714D02*
X169910190Y-97067714D01*
X169672095Y-96734380D02*
X169672095Y-97591523D01*
X169719714Y-97686761D01*
X169814952Y-97734380D01*
X169910190Y-97734380D01*
X170100666Y-97067714D02*
X170481619Y-97067714D01*
X170243523Y-96734380D02*
X170243523Y-97591523D01*
X170291142Y-97686761D01*
X170386380Y-97734380D01*
X170481619Y-97734380D01*
X170957809Y-97734380D02*
X170862571Y-97686761D01*
X170814952Y-97639142D01*
X170767333Y-97543904D01*
X170767333Y-97258190D01*
X170814952Y-97162952D01*
X170862571Y-97115333D01*
X170957809Y-97067714D01*
X171100666Y-97067714D01*
X171195904Y-97115333D01*
X171243523Y-97162952D01*
X171291142Y-97258190D01*
X171291142Y-97543904D01*
X171243523Y-97639142D01*
X171195904Y-97686761D01*
X171100666Y-97734380D01*
X170957809Y-97734380D01*
X171719714Y-97067714D02*
X171719714Y-97734380D01*
X171719714Y-97162952D02*
X171767333Y-97115333D01*
X171862571Y-97067714D01*
X172005428Y-97067714D01*
X172100666Y-97115333D01*
X172148285Y-97210571D01*
X172148285Y-97734380D01*
X173053047Y-96734380D02*
X172862571Y-96734380D01*
X172767333Y-96782000D01*
X172719714Y-96829619D01*
X172624476Y-96972476D01*
X172576857Y-97162952D01*
X172576857Y-97543904D01*
X172624476Y-97639142D01*
X172672095Y-97686761D01*
X172767333Y-97734380D01*
X172957809Y-97734380D01*
X173053047Y-97686761D01*
X173100666Y-97639142D01*
X173148285Y-97543904D01*
X173148285Y-97305809D01*
X173100666Y-97210571D01*
X173053047Y-97162952D01*
X172957809Y-97115333D01*
X172767333Y-97115333D01*
X172672095Y-97162952D01*
X172624476Y-97210571D01*
X172576857Y-97305809D01*
%TO.C,Pin Header*%
X154821428Y-42997380D02*
X154821428Y-41997380D01*
X155202380Y-41997380D01*
X155297619Y-42045000D01*
X155345238Y-42092619D01*
X155392857Y-42187857D01*
X155392857Y-42330714D01*
X155345238Y-42425952D01*
X155297619Y-42473571D01*
X155202380Y-42521190D01*
X154821428Y-42521190D01*
X155821428Y-42997380D02*
X155821428Y-42330714D01*
X155821428Y-41997380D02*
X155773809Y-42045000D01*
X155821428Y-42092619D01*
X155869047Y-42045000D01*
X155821428Y-41997380D01*
X155821428Y-42092619D01*
X156297619Y-42330714D02*
X156297619Y-42997380D01*
X156297619Y-42425952D02*
X156345238Y-42378333D01*
X156440476Y-42330714D01*
X156583333Y-42330714D01*
X156678571Y-42378333D01*
X156726190Y-42473571D01*
X156726190Y-42997380D01*
X157964285Y-42997380D02*
X157964285Y-41997380D01*
X157964285Y-42473571D02*
X158535714Y-42473571D01*
X158535714Y-42997380D02*
X158535714Y-41997380D01*
X159392857Y-42949761D02*
X159297619Y-42997380D01*
X159107142Y-42997380D01*
X159011904Y-42949761D01*
X158964285Y-42854523D01*
X158964285Y-42473571D01*
X159011904Y-42378333D01*
X159107142Y-42330714D01*
X159297619Y-42330714D01*
X159392857Y-42378333D01*
X159440476Y-42473571D01*
X159440476Y-42568809D01*
X158964285Y-42664047D01*
X160297619Y-42997380D02*
X160297619Y-42473571D01*
X160250000Y-42378333D01*
X160154761Y-42330714D01*
X159964285Y-42330714D01*
X159869047Y-42378333D01*
X160297619Y-42949761D02*
X160202380Y-42997380D01*
X159964285Y-42997380D01*
X159869047Y-42949761D01*
X159821428Y-42854523D01*
X159821428Y-42759285D01*
X159869047Y-42664047D01*
X159964285Y-42616428D01*
X160202380Y-42616428D01*
X160297619Y-42568809D01*
X161202380Y-42997380D02*
X161202380Y-41997380D01*
X161202380Y-42949761D02*
X161107142Y-42997380D01*
X160916666Y-42997380D01*
X160821428Y-42949761D01*
X160773809Y-42902142D01*
X160726190Y-42806904D01*
X160726190Y-42521190D01*
X160773809Y-42425952D01*
X160821428Y-42378333D01*
X160916666Y-42330714D01*
X161107142Y-42330714D01*
X161202380Y-42378333D01*
X162059523Y-42949761D02*
X161964285Y-42997380D01*
X161773809Y-42997380D01*
X161678571Y-42949761D01*
X161630952Y-42854523D01*
X161630952Y-42473571D01*
X161678571Y-42378333D01*
X161773809Y-42330714D01*
X161964285Y-42330714D01*
X162059523Y-42378333D01*
X162107142Y-42473571D01*
X162107142Y-42568809D01*
X161630952Y-42664047D01*
X162535714Y-42997380D02*
X162535714Y-42330714D01*
X162535714Y-42521190D02*
X162583333Y-42425952D01*
X162630952Y-42378333D01*
X162726190Y-42330714D01*
X162821428Y-42330714D01*
%TO.C,Button0*%
X167846666Y-56443571D02*
X167989523Y-56491190D01*
X168037142Y-56538809D01*
X168084761Y-56634047D01*
X168084761Y-56776904D01*
X168037142Y-56872142D01*
X167989523Y-56919761D01*
X167894285Y-56967380D01*
X167513333Y-56967380D01*
X167513333Y-55967380D01*
X167846666Y-55967380D01*
X167941904Y-56015000D01*
X167989523Y-56062619D01*
X168037142Y-56157857D01*
X168037142Y-56253095D01*
X167989523Y-56348333D01*
X167941904Y-56395952D01*
X167846666Y-56443571D01*
X167513333Y-56443571D01*
X168941904Y-56300714D02*
X168941904Y-56967380D01*
X168513333Y-56300714D02*
X168513333Y-56824523D01*
X168560952Y-56919761D01*
X168656190Y-56967380D01*
X168799047Y-56967380D01*
X168894285Y-56919761D01*
X168941904Y-56872142D01*
X169275238Y-56300714D02*
X169656190Y-56300714D01*
X169418095Y-55967380D02*
X169418095Y-56824523D01*
X169465714Y-56919761D01*
X169560952Y-56967380D01*
X169656190Y-56967380D01*
X169846666Y-56300714D02*
X170227619Y-56300714D01*
X169989523Y-55967380D02*
X169989523Y-56824523D01*
X170037142Y-56919761D01*
X170132380Y-56967380D01*
X170227619Y-56967380D01*
X170703809Y-56967380D02*
X170608571Y-56919761D01*
X170560952Y-56872142D01*
X170513333Y-56776904D01*
X170513333Y-56491190D01*
X170560952Y-56395952D01*
X170608571Y-56348333D01*
X170703809Y-56300714D01*
X170846666Y-56300714D01*
X170941904Y-56348333D01*
X170989523Y-56395952D01*
X171037142Y-56491190D01*
X171037142Y-56776904D01*
X170989523Y-56872142D01*
X170941904Y-56919761D01*
X170846666Y-56967380D01*
X170703809Y-56967380D01*
X171465714Y-56300714D02*
X171465714Y-56967380D01*
X171465714Y-56395952D02*
X171513333Y-56348333D01*
X171608571Y-56300714D01*
X171751428Y-56300714D01*
X171846666Y-56348333D01*
X171894285Y-56443571D01*
X171894285Y-56967380D01*
X172560952Y-55967380D02*
X172656190Y-55967380D01*
X172751428Y-56015000D01*
X172799047Y-56062619D01*
X172846666Y-56157857D01*
X172894285Y-56348333D01*
X172894285Y-56586428D01*
X172846666Y-56776904D01*
X172799047Y-56872142D01*
X172751428Y-56919761D01*
X172656190Y-56967380D01*
X172560952Y-56967380D01*
X172465714Y-56919761D01*
X172418095Y-56872142D01*
X172370476Y-56776904D01*
X172322857Y-56586428D01*
X172322857Y-56348333D01*
X172370476Y-56157857D01*
X172418095Y-56062619D01*
X172465714Y-56015000D01*
X172560952Y-55967380D01*
%TO.C,Button4*%
X128730666Y-97210571D02*
X128873523Y-97258190D01*
X128921142Y-97305809D01*
X128968761Y-97401047D01*
X128968761Y-97543904D01*
X128921142Y-97639142D01*
X128873523Y-97686761D01*
X128778285Y-97734380D01*
X128397333Y-97734380D01*
X128397333Y-96734380D01*
X128730666Y-96734380D01*
X128825904Y-96782000D01*
X128873523Y-96829619D01*
X128921142Y-96924857D01*
X128921142Y-97020095D01*
X128873523Y-97115333D01*
X128825904Y-97162952D01*
X128730666Y-97210571D01*
X128397333Y-97210571D01*
X129825904Y-97067714D02*
X129825904Y-97734380D01*
X129397333Y-97067714D02*
X129397333Y-97591523D01*
X129444952Y-97686761D01*
X129540190Y-97734380D01*
X129683047Y-97734380D01*
X129778285Y-97686761D01*
X129825904Y-97639142D01*
X130159238Y-97067714D02*
X130540190Y-97067714D01*
X130302095Y-96734380D02*
X130302095Y-97591523D01*
X130349714Y-97686761D01*
X130444952Y-97734380D01*
X130540190Y-97734380D01*
X130730666Y-97067714D02*
X131111619Y-97067714D01*
X130873523Y-96734380D02*
X130873523Y-97591523D01*
X130921142Y-97686761D01*
X131016380Y-97734380D01*
X131111619Y-97734380D01*
X131587809Y-97734380D02*
X131492571Y-97686761D01*
X131444952Y-97639142D01*
X131397333Y-97543904D01*
X131397333Y-97258190D01*
X131444952Y-97162952D01*
X131492571Y-97115333D01*
X131587809Y-97067714D01*
X131730666Y-97067714D01*
X131825904Y-97115333D01*
X131873523Y-97162952D01*
X131921142Y-97258190D01*
X131921142Y-97543904D01*
X131873523Y-97639142D01*
X131825904Y-97686761D01*
X131730666Y-97734380D01*
X131587809Y-97734380D01*
X132349714Y-97067714D02*
X132349714Y-97734380D01*
X132349714Y-97162952D02*
X132397333Y-97115333D01*
X132492571Y-97067714D01*
X132635428Y-97067714D01*
X132730666Y-97115333D01*
X132778285Y-97210571D01*
X132778285Y-97734380D01*
X133683047Y-97067714D02*
X133683047Y-97734380D01*
X133444952Y-96686761D02*
X133206857Y-97401047D01*
X133825904Y-97401047D01*
%TO.C,Button1*%
X128349666Y-76890571D02*
X128492523Y-76938190D01*
X128540142Y-76985809D01*
X128587761Y-77081047D01*
X128587761Y-77223904D01*
X128540142Y-77319142D01*
X128492523Y-77366761D01*
X128397285Y-77414380D01*
X128016333Y-77414380D01*
X128016333Y-76414380D01*
X128349666Y-76414380D01*
X128444904Y-76462000D01*
X128492523Y-76509619D01*
X128540142Y-76604857D01*
X128540142Y-76700095D01*
X128492523Y-76795333D01*
X128444904Y-76842952D01*
X128349666Y-76890571D01*
X128016333Y-76890571D01*
X129444904Y-76747714D02*
X129444904Y-77414380D01*
X129016333Y-76747714D02*
X129016333Y-77271523D01*
X129063952Y-77366761D01*
X129159190Y-77414380D01*
X129302047Y-77414380D01*
X129397285Y-77366761D01*
X129444904Y-77319142D01*
X129778238Y-76747714D02*
X130159190Y-76747714D01*
X129921095Y-76414380D02*
X129921095Y-77271523D01*
X129968714Y-77366761D01*
X130063952Y-77414380D01*
X130159190Y-77414380D01*
X130349666Y-76747714D02*
X130730619Y-76747714D01*
X130492523Y-76414380D02*
X130492523Y-77271523D01*
X130540142Y-77366761D01*
X130635380Y-77414380D01*
X130730619Y-77414380D01*
X131206809Y-77414380D02*
X131111571Y-77366761D01*
X131063952Y-77319142D01*
X131016333Y-77223904D01*
X131016333Y-76938190D01*
X131063952Y-76842952D01*
X131111571Y-76795333D01*
X131206809Y-76747714D01*
X131349666Y-76747714D01*
X131444904Y-76795333D01*
X131492523Y-76842952D01*
X131540142Y-76938190D01*
X131540142Y-77223904D01*
X131492523Y-77319142D01*
X131444904Y-77366761D01*
X131349666Y-77414380D01*
X131206809Y-77414380D01*
X131968714Y-76747714D02*
X131968714Y-77414380D01*
X131968714Y-76842952D02*
X132016333Y-76795333D01*
X132111571Y-76747714D01*
X132254428Y-76747714D01*
X132349666Y-76795333D01*
X132397285Y-76890571D01*
X132397285Y-77414380D01*
X133397285Y-77414380D02*
X132825857Y-77414380D01*
X133111571Y-77414380D02*
X133111571Y-76414380D01*
X133016333Y-76557238D01*
X132921095Y-76652476D01*
X132825857Y-76700095D01*
%TO.C,Button5*%
X148415666Y-97210571D02*
X148558523Y-97258190D01*
X148606142Y-97305809D01*
X148653761Y-97401047D01*
X148653761Y-97543904D01*
X148606142Y-97639142D01*
X148558523Y-97686761D01*
X148463285Y-97734380D01*
X148082333Y-97734380D01*
X148082333Y-96734380D01*
X148415666Y-96734380D01*
X148510904Y-96782000D01*
X148558523Y-96829619D01*
X148606142Y-96924857D01*
X148606142Y-97020095D01*
X148558523Y-97115333D01*
X148510904Y-97162952D01*
X148415666Y-97210571D01*
X148082333Y-97210571D01*
X149510904Y-97067714D02*
X149510904Y-97734380D01*
X149082333Y-97067714D02*
X149082333Y-97591523D01*
X149129952Y-97686761D01*
X149225190Y-97734380D01*
X149368047Y-97734380D01*
X149463285Y-97686761D01*
X149510904Y-97639142D01*
X149844238Y-97067714D02*
X150225190Y-97067714D01*
X149987095Y-96734380D02*
X149987095Y-97591523D01*
X150034714Y-97686761D01*
X150129952Y-97734380D01*
X150225190Y-97734380D01*
X150415666Y-97067714D02*
X150796619Y-97067714D01*
X150558523Y-96734380D02*
X150558523Y-97591523D01*
X150606142Y-97686761D01*
X150701380Y-97734380D01*
X150796619Y-97734380D01*
X151272809Y-97734380D02*
X151177571Y-97686761D01*
X151129952Y-97639142D01*
X151082333Y-97543904D01*
X151082333Y-97258190D01*
X151129952Y-97162952D01*
X151177571Y-97115333D01*
X151272809Y-97067714D01*
X151415666Y-97067714D01*
X151510904Y-97115333D01*
X151558523Y-97162952D01*
X151606142Y-97258190D01*
X151606142Y-97543904D01*
X151558523Y-97639142D01*
X151510904Y-97686761D01*
X151415666Y-97734380D01*
X151272809Y-97734380D01*
X152034714Y-97067714D02*
X152034714Y-97734380D01*
X152034714Y-97162952D02*
X152082333Y-97115333D01*
X152177571Y-97067714D01*
X152320428Y-97067714D01*
X152415666Y-97115333D01*
X152463285Y-97210571D01*
X152463285Y-97734380D01*
X153415666Y-96734380D02*
X152939476Y-96734380D01*
X152891857Y-97210571D01*
X152939476Y-97162952D01*
X153034714Y-97115333D01*
X153272809Y-97115333D01*
X153368047Y-97162952D01*
X153415666Y-97210571D01*
X153463285Y-97305809D01*
X153463285Y-97543904D01*
X153415666Y-97639142D01*
X153368047Y-97686761D01*
X153272809Y-97734380D01*
X153034714Y-97734380D01*
X152939476Y-97686761D01*
X152891857Y-97639142D01*
%TO.C,Rotary 0*%
X127746428Y-58110380D02*
X127413095Y-57634190D01*
X127175000Y-58110380D02*
X127175000Y-57110380D01*
X127555952Y-57110380D01*
X127651190Y-57158000D01*
X127698809Y-57205619D01*
X127746428Y-57300857D01*
X127746428Y-57443714D01*
X127698809Y-57538952D01*
X127651190Y-57586571D01*
X127555952Y-57634190D01*
X127175000Y-57634190D01*
X128317857Y-58110380D02*
X128222619Y-58062761D01*
X128175000Y-58015142D01*
X128127380Y-57919904D01*
X128127380Y-57634190D01*
X128175000Y-57538952D01*
X128222619Y-57491333D01*
X128317857Y-57443714D01*
X128460714Y-57443714D01*
X128555952Y-57491333D01*
X128603571Y-57538952D01*
X128651190Y-57634190D01*
X128651190Y-57919904D01*
X128603571Y-58015142D01*
X128555952Y-58062761D01*
X128460714Y-58110380D01*
X128317857Y-58110380D01*
X128936904Y-57443714D02*
X129317857Y-57443714D01*
X129079761Y-57110380D02*
X129079761Y-57967523D01*
X129127380Y-58062761D01*
X129222619Y-58110380D01*
X129317857Y-58110380D01*
X130079761Y-58110380D02*
X130079761Y-57586571D01*
X130032142Y-57491333D01*
X129936904Y-57443714D01*
X129746428Y-57443714D01*
X129651190Y-57491333D01*
X130079761Y-58062761D02*
X129984523Y-58110380D01*
X129746428Y-58110380D01*
X129651190Y-58062761D01*
X129603571Y-57967523D01*
X129603571Y-57872285D01*
X129651190Y-57777047D01*
X129746428Y-57729428D01*
X129984523Y-57729428D01*
X130079761Y-57681809D01*
X130555952Y-58110380D02*
X130555952Y-57443714D01*
X130555952Y-57634190D02*
X130603571Y-57538952D01*
X130651190Y-57491333D01*
X130746428Y-57443714D01*
X130841666Y-57443714D01*
X131079761Y-57443714D02*
X131317857Y-58110380D01*
X131555952Y-57443714D02*
X131317857Y-58110380D01*
X131222619Y-58348476D01*
X131175000Y-58396095D01*
X131079761Y-58443714D01*
X132889285Y-57110380D02*
X132984523Y-57110380D01*
X133079761Y-57158000D01*
X133127380Y-57205619D01*
X133175000Y-57300857D01*
X133222619Y-57491333D01*
X133222619Y-57729428D01*
X133175000Y-57919904D01*
X133127380Y-58015142D01*
X133079761Y-58062761D01*
X132984523Y-58110380D01*
X132889285Y-58110380D01*
X132794047Y-58062761D01*
X132746428Y-58015142D01*
X132698809Y-57919904D01*
X132651190Y-57729428D01*
X132651190Y-57491333D01*
X132698809Y-57300857D01*
X132746428Y-57205619D01*
X132794047Y-57158000D01*
X132889285Y-57110380D01*
%TO.C,Button2*%
X148161666Y-76890571D02*
X148304523Y-76938190D01*
X148352142Y-76985809D01*
X148399761Y-77081047D01*
X148399761Y-77223904D01*
X148352142Y-77319142D01*
X148304523Y-77366761D01*
X148209285Y-77414380D01*
X147828333Y-77414380D01*
X147828333Y-76414380D01*
X148161666Y-76414380D01*
X148256904Y-76462000D01*
X148304523Y-76509619D01*
X148352142Y-76604857D01*
X148352142Y-76700095D01*
X148304523Y-76795333D01*
X148256904Y-76842952D01*
X148161666Y-76890571D01*
X147828333Y-76890571D01*
X149256904Y-76747714D02*
X149256904Y-77414380D01*
X148828333Y-76747714D02*
X148828333Y-77271523D01*
X148875952Y-77366761D01*
X148971190Y-77414380D01*
X149114047Y-77414380D01*
X149209285Y-77366761D01*
X149256904Y-77319142D01*
X149590238Y-76747714D02*
X149971190Y-76747714D01*
X149733095Y-76414380D02*
X149733095Y-77271523D01*
X149780714Y-77366761D01*
X149875952Y-77414380D01*
X149971190Y-77414380D01*
X150161666Y-76747714D02*
X150542619Y-76747714D01*
X150304523Y-76414380D02*
X150304523Y-77271523D01*
X150352142Y-77366761D01*
X150447380Y-77414380D01*
X150542619Y-77414380D01*
X151018809Y-77414380D02*
X150923571Y-77366761D01*
X150875952Y-77319142D01*
X150828333Y-77223904D01*
X150828333Y-76938190D01*
X150875952Y-76842952D01*
X150923571Y-76795333D01*
X151018809Y-76747714D01*
X151161666Y-76747714D01*
X151256904Y-76795333D01*
X151304523Y-76842952D01*
X151352142Y-76938190D01*
X151352142Y-77223904D01*
X151304523Y-77319142D01*
X151256904Y-77366761D01*
X151161666Y-77414380D01*
X151018809Y-77414380D01*
X151780714Y-76747714D02*
X151780714Y-77414380D01*
X151780714Y-76842952D02*
X151828333Y-76795333D01*
X151923571Y-76747714D01*
X152066428Y-76747714D01*
X152161666Y-76795333D01*
X152209285Y-76890571D01*
X152209285Y-77414380D01*
X152637857Y-76509619D02*
X152685476Y-76462000D01*
X152780714Y-76414380D01*
X153018809Y-76414380D01*
X153114047Y-76462000D01*
X153161666Y-76509619D01*
X153209285Y-76604857D01*
X153209285Y-76700095D01*
X153161666Y-76842952D01*
X152590238Y-77414380D01*
X153209285Y-77414380D01*
%TO.C,Rotary 1*%
X127111428Y-141930380D02*
X126778095Y-141454190D01*
X126540000Y-141930380D02*
X126540000Y-140930380D01*
X126920952Y-140930380D01*
X127016190Y-140978000D01*
X127063809Y-141025619D01*
X127111428Y-141120857D01*
X127111428Y-141263714D01*
X127063809Y-141358952D01*
X127016190Y-141406571D01*
X126920952Y-141454190D01*
X126540000Y-141454190D01*
X127682857Y-141930380D02*
X127587619Y-141882761D01*
X127540000Y-141835142D01*
X127492380Y-141739904D01*
X127492380Y-141454190D01*
X127540000Y-141358952D01*
X127587619Y-141311333D01*
X127682857Y-141263714D01*
X127825714Y-141263714D01*
X127920952Y-141311333D01*
X127968571Y-141358952D01*
X128016190Y-141454190D01*
X128016190Y-141739904D01*
X127968571Y-141835142D01*
X127920952Y-141882761D01*
X127825714Y-141930380D01*
X127682857Y-141930380D01*
X128301904Y-141263714D02*
X128682857Y-141263714D01*
X128444761Y-140930380D02*
X128444761Y-141787523D01*
X128492380Y-141882761D01*
X128587619Y-141930380D01*
X128682857Y-141930380D01*
X129444761Y-141930380D02*
X129444761Y-141406571D01*
X129397142Y-141311333D01*
X129301904Y-141263714D01*
X129111428Y-141263714D01*
X129016190Y-141311333D01*
X129444761Y-141882761D02*
X129349523Y-141930380D01*
X129111428Y-141930380D01*
X129016190Y-141882761D01*
X128968571Y-141787523D01*
X128968571Y-141692285D01*
X129016190Y-141597047D01*
X129111428Y-141549428D01*
X129349523Y-141549428D01*
X129444761Y-141501809D01*
X129920952Y-141930380D02*
X129920952Y-141263714D01*
X129920952Y-141454190D02*
X129968571Y-141358952D01*
X130016190Y-141311333D01*
X130111428Y-141263714D01*
X130206666Y-141263714D01*
X130444761Y-141263714D02*
X130682857Y-141930380D01*
X130920952Y-141263714D02*
X130682857Y-141930380D01*
X130587619Y-142168476D01*
X130540000Y-142216095D01*
X130444761Y-142263714D01*
X132587619Y-141930380D02*
X132016190Y-141930380D01*
X132301904Y-141930380D02*
X132301904Y-140930380D01*
X132206666Y-141073238D01*
X132111428Y-141168476D01*
X132016190Y-141216095D01*
%TO.C,Rotary 3*%
X168894428Y-142057380D02*
X168561095Y-141581190D01*
X168323000Y-142057380D02*
X168323000Y-141057380D01*
X168703952Y-141057380D01*
X168799190Y-141105000D01*
X168846809Y-141152619D01*
X168894428Y-141247857D01*
X168894428Y-141390714D01*
X168846809Y-141485952D01*
X168799190Y-141533571D01*
X168703952Y-141581190D01*
X168323000Y-141581190D01*
X169465857Y-142057380D02*
X169370619Y-142009761D01*
X169323000Y-141962142D01*
X169275380Y-141866904D01*
X169275380Y-141581190D01*
X169323000Y-141485952D01*
X169370619Y-141438333D01*
X169465857Y-141390714D01*
X169608714Y-141390714D01*
X169703952Y-141438333D01*
X169751571Y-141485952D01*
X169799190Y-141581190D01*
X169799190Y-141866904D01*
X169751571Y-141962142D01*
X169703952Y-142009761D01*
X169608714Y-142057380D01*
X169465857Y-142057380D01*
X170084904Y-141390714D02*
X170465857Y-141390714D01*
X170227761Y-141057380D02*
X170227761Y-141914523D01*
X170275380Y-142009761D01*
X170370619Y-142057380D01*
X170465857Y-142057380D01*
X171227761Y-142057380D02*
X171227761Y-141533571D01*
X171180142Y-141438333D01*
X171084904Y-141390714D01*
X170894428Y-141390714D01*
X170799190Y-141438333D01*
X171227761Y-142009761D02*
X171132523Y-142057380D01*
X170894428Y-142057380D01*
X170799190Y-142009761D01*
X170751571Y-141914523D01*
X170751571Y-141819285D01*
X170799190Y-141724047D01*
X170894428Y-141676428D01*
X171132523Y-141676428D01*
X171227761Y-141628809D01*
X171703952Y-142057380D02*
X171703952Y-141390714D01*
X171703952Y-141581190D02*
X171751571Y-141485952D01*
X171799190Y-141438333D01*
X171894428Y-141390714D01*
X171989666Y-141390714D01*
X172227761Y-141390714D02*
X172465857Y-142057380D01*
X172703952Y-141390714D02*
X172465857Y-142057380D01*
X172370619Y-142295476D01*
X172323000Y-142343095D01*
X172227761Y-142390714D01*
X173751571Y-141057380D02*
X174370619Y-141057380D01*
X174037285Y-141438333D01*
X174180142Y-141438333D01*
X174275380Y-141485952D01*
X174323000Y-141533571D01*
X174370619Y-141628809D01*
X174370619Y-141866904D01*
X174323000Y-141962142D01*
X174275380Y-142009761D01*
X174180142Y-142057380D01*
X173894428Y-142057380D01*
X173799190Y-142009761D01*
X173751571Y-141962142D01*
%TO.C,Button7*%
X128730666Y-117530571D02*
X128873523Y-117578190D01*
X128921142Y-117625809D01*
X128968761Y-117721047D01*
X128968761Y-117863904D01*
X128921142Y-117959142D01*
X128873523Y-118006761D01*
X128778285Y-118054380D01*
X128397333Y-118054380D01*
X128397333Y-117054380D01*
X128730666Y-117054380D01*
X128825904Y-117102000D01*
X128873523Y-117149619D01*
X128921142Y-117244857D01*
X128921142Y-117340095D01*
X128873523Y-117435333D01*
X128825904Y-117482952D01*
X128730666Y-117530571D01*
X128397333Y-117530571D01*
X129825904Y-117387714D02*
X129825904Y-118054380D01*
X129397333Y-117387714D02*
X129397333Y-117911523D01*
X129444952Y-118006761D01*
X129540190Y-118054380D01*
X129683047Y-118054380D01*
X129778285Y-118006761D01*
X129825904Y-117959142D01*
X130159238Y-117387714D02*
X130540190Y-117387714D01*
X130302095Y-117054380D02*
X130302095Y-117911523D01*
X130349714Y-118006761D01*
X130444952Y-118054380D01*
X130540190Y-118054380D01*
X130730666Y-117387714D02*
X131111619Y-117387714D01*
X130873523Y-117054380D02*
X130873523Y-117911523D01*
X130921142Y-118006761D01*
X131016380Y-118054380D01*
X131111619Y-118054380D01*
X131587809Y-118054380D02*
X131492571Y-118006761D01*
X131444952Y-117959142D01*
X131397333Y-117863904D01*
X131397333Y-117578190D01*
X131444952Y-117482952D01*
X131492571Y-117435333D01*
X131587809Y-117387714D01*
X131730666Y-117387714D01*
X131825904Y-117435333D01*
X131873523Y-117482952D01*
X131921142Y-117578190D01*
X131921142Y-117863904D01*
X131873523Y-117959142D01*
X131825904Y-118006761D01*
X131730666Y-118054380D01*
X131587809Y-118054380D01*
X132349714Y-117387714D02*
X132349714Y-118054380D01*
X132349714Y-117482952D02*
X132397333Y-117435333D01*
X132492571Y-117387714D01*
X132635428Y-117387714D01*
X132730666Y-117435333D01*
X132778285Y-117530571D01*
X132778285Y-118054380D01*
X133159238Y-117054380D02*
X133825904Y-117054380D01*
X133397333Y-118054380D01*
%TO.C,Button8*%
X148415666Y-117530571D02*
X148558523Y-117578190D01*
X148606142Y-117625809D01*
X148653761Y-117721047D01*
X148653761Y-117863904D01*
X148606142Y-117959142D01*
X148558523Y-118006761D01*
X148463285Y-118054380D01*
X148082333Y-118054380D01*
X148082333Y-117054380D01*
X148415666Y-117054380D01*
X148510904Y-117102000D01*
X148558523Y-117149619D01*
X148606142Y-117244857D01*
X148606142Y-117340095D01*
X148558523Y-117435333D01*
X148510904Y-117482952D01*
X148415666Y-117530571D01*
X148082333Y-117530571D01*
X149510904Y-117387714D02*
X149510904Y-118054380D01*
X149082333Y-117387714D02*
X149082333Y-117911523D01*
X149129952Y-118006761D01*
X149225190Y-118054380D01*
X149368047Y-118054380D01*
X149463285Y-118006761D01*
X149510904Y-117959142D01*
X149844238Y-117387714D02*
X150225190Y-117387714D01*
X149987095Y-117054380D02*
X149987095Y-117911523D01*
X150034714Y-118006761D01*
X150129952Y-118054380D01*
X150225190Y-118054380D01*
X150415666Y-117387714D02*
X150796619Y-117387714D01*
X150558523Y-117054380D02*
X150558523Y-117911523D01*
X150606142Y-118006761D01*
X150701380Y-118054380D01*
X150796619Y-118054380D01*
X151272809Y-118054380D02*
X151177571Y-118006761D01*
X151129952Y-117959142D01*
X151082333Y-117863904D01*
X151082333Y-117578190D01*
X151129952Y-117482952D01*
X151177571Y-117435333D01*
X151272809Y-117387714D01*
X151415666Y-117387714D01*
X151510904Y-117435333D01*
X151558523Y-117482952D01*
X151606142Y-117578190D01*
X151606142Y-117863904D01*
X151558523Y-117959142D01*
X151510904Y-118006761D01*
X151415666Y-118054380D01*
X151272809Y-118054380D01*
X152034714Y-117387714D02*
X152034714Y-118054380D01*
X152034714Y-117482952D02*
X152082333Y-117435333D01*
X152177571Y-117387714D01*
X152320428Y-117387714D01*
X152415666Y-117435333D01*
X152463285Y-117530571D01*
X152463285Y-118054380D01*
X153082333Y-117482952D02*
X152987095Y-117435333D01*
X152939476Y-117387714D01*
X152891857Y-117292476D01*
X152891857Y-117244857D01*
X152939476Y-117149619D01*
X152987095Y-117102000D01*
X153082333Y-117054380D01*
X153272809Y-117054380D01*
X153368047Y-117102000D01*
X153415666Y-117149619D01*
X153463285Y-117244857D01*
X153463285Y-117292476D01*
X153415666Y-117387714D01*
X153368047Y-117435333D01*
X153272809Y-117482952D01*
X153082333Y-117482952D01*
X152987095Y-117530571D01*
X152939476Y-117578190D01*
X152891857Y-117673428D01*
X152891857Y-117863904D01*
X152939476Y-117959142D01*
X152987095Y-118006761D01*
X153082333Y-118054380D01*
X153272809Y-118054380D01*
X153368047Y-118006761D01*
X153415666Y-117959142D01*
X153463285Y-117863904D01*
X153463285Y-117673428D01*
X153415666Y-117578190D01*
X153368047Y-117530571D01*
X153272809Y-117482952D01*
%TO.C,Rotary 2*%
X148066428Y-142311380D02*
X147733095Y-141835190D01*
X147495000Y-142311380D02*
X147495000Y-141311380D01*
X147875952Y-141311380D01*
X147971190Y-141359000D01*
X148018809Y-141406619D01*
X148066428Y-141501857D01*
X148066428Y-141644714D01*
X148018809Y-141739952D01*
X147971190Y-141787571D01*
X147875952Y-141835190D01*
X147495000Y-141835190D01*
X148637857Y-142311380D02*
X148542619Y-142263761D01*
X148495000Y-142216142D01*
X148447380Y-142120904D01*
X148447380Y-141835190D01*
X148495000Y-141739952D01*
X148542619Y-141692333D01*
X148637857Y-141644714D01*
X148780714Y-141644714D01*
X148875952Y-141692333D01*
X148923571Y-141739952D01*
X148971190Y-141835190D01*
X148971190Y-142120904D01*
X148923571Y-142216142D01*
X148875952Y-142263761D01*
X148780714Y-142311380D01*
X148637857Y-142311380D01*
X149256904Y-141644714D02*
X149637857Y-141644714D01*
X149399761Y-141311380D02*
X149399761Y-142168523D01*
X149447380Y-142263761D01*
X149542619Y-142311380D01*
X149637857Y-142311380D01*
X150399761Y-142311380D02*
X150399761Y-141787571D01*
X150352142Y-141692333D01*
X150256904Y-141644714D01*
X150066428Y-141644714D01*
X149971190Y-141692333D01*
X150399761Y-142263761D02*
X150304523Y-142311380D01*
X150066428Y-142311380D01*
X149971190Y-142263761D01*
X149923571Y-142168523D01*
X149923571Y-142073285D01*
X149971190Y-141978047D01*
X150066428Y-141930428D01*
X150304523Y-141930428D01*
X150399761Y-141882809D01*
X150875952Y-142311380D02*
X150875952Y-141644714D01*
X150875952Y-141835190D02*
X150923571Y-141739952D01*
X150971190Y-141692333D01*
X151066428Y-141644714D01*
X151161666Y-141644714D01*
X151399761Y-141644714D02*
X151637857Y-142311380D01*
X151875952Y-141644714D02*
X151637857Y-142311380D01*
X151542619Y-142549476D01*
X151495000Y-142597095D01*
X151399761Y-142644714D01*
X152971190Y-141406619D02*
X153018809Y-141359000D01*
X153114047Y-141311380D01*
X153352142Y-141311380D01*
X153447380Y-141359000D01*
X153495000Y-141406619D01*
X153542619Y-141501857D01*
X153542619Y-141597095D01*
X153495000Y-141739952D01*
X152923571Y-142311380D01*
X153542619Y-142311380D01*
%TD*%
M02*
