%TF.GenerationSoftware,KiCad,Pcbnew,(5.1.10)-1*%
%TF.CreationDate,2022-09-07T09:40:49-04:00*%
%TF.ProjectId,BlenderMacroBoardPCB,426c656e-6465-4724-9d61-63726f426f61,rev?*%
%TF.SameCoordinates,Original*%
%TF.FileFunction,Legend,Bot*%
%TF.FilePolarity,Positive*%
%FSLAX46Y46*%
G04 Gerber Fmt 4.6, Leading zero omitted, Abs format (unit mm)*
G04 Created by KiCad (PCBNEW (5.1.10)-1) date 2022-09-07 09:40:49*
%MOMM*%
%LPD*%
G01*
G04 APERTURE LIST*
%ADD10C,0.120000*%
%ADD11C,0.150000*%
G04 APERTURE END LIST*
D10*
%TO.C,Pico*%
X139360000Y-94715000D02*
X146160000Y-94715000D01*
X139360000Y-84315000D02*
X139360000Y-84715000D01*
X139360000Y-76615000D02*
X139360000Y-77015000D01*
X139360000Y-51215000D02*
X139360000Y-51615000D01*
X139360000Y-43715000D02*
X139360000Y-44015000D01*
X139360000Y-66515000D02*
X139360000Y-66915000D01*
X139360000Y-81715000D02*
X139360000Y-82115000D01*
X139360000Y-61415000D02*
X139360000Y-61815000D01*
X139360000Y-56315000D02*
X139360000Y-56715000D01*
X139360000Y-69015000D02*
X139360000Y-69415000D01*
X139360000Y-74115000D02*
X139360000Y-74515000D01*
X139360000Y-89315000D02*
X139360000Y-89715000D01*
X139360000Y-91915000D02*
X139360000Y-92315000D01*
X139360000Y-86815000D02*
X139360000Y-87215000D01*
X139360000Y-53815000D02*
X139360000Y-54215000D01*
X139360000Y-46115000D02*
X139360000Y-46515000D01*
X139360000Y-48715000D02*
X139360000Y-49115000D01*
X139360000Y-79215000D02*
X139360000Y-79615000D01*
X139360000Y-71515000D02*
X139360000Y-71915000D01*
X139360000Y-63915000D02*
X139360000Y-64315000D01*
X139360000Y-58815000D02*
X139360000Y-59215000D01*
X160360000Y-91915000D02*
X160360000Y-92315000D01*
X160360000Y-89315000D02*
X160360000Y-89715000D01*
X160360000Y-86815000D02*
X160360000Y-87215000D01*
X160360000Y-84315000D02*
X160360000Y-84715000D01*
X160360000Y-81715000D02*
X160360000Y-82115000D01*
X160360000Y-79215000D02*
X160360000Y-79615000D01*
X160360000Y-76615000D02*
X160360000Y-77015000D01*
X160360000Y-74115000D02*
X160360000Y-74515000D01*
X160360000Y-71515000D02*
X160360000Y-71915000D01*
X160360000Y-69015000D02*
X160360000Y-69415000D01*
X160360000Y-66515000D02*
X160360000Y-66915000D01*
X160360000Y-63915000D02*
X160360000Y-64315000D01*
X160360000Y-61415000D02*
X160360000Y-61815000D01*
X160360000Y-58815000D02*
X160360000Y-59215000D01*
X160360000Y-56315000D02*
X160360000Y-56715000D01*
X160360000Y-53815000D02*
X160360000Y-54215000D01*
X160360000Y-51215000D02*
X160360000Y-51615000D01*
X160360000Y-48715000D02*
X160360000Y-49115000D01*
X160360000Y-46115000D02*
X160360000Y-46515000D01*
X160360000Y-43715000D02*
X160360000Y-44015000D01*
X157353000Y-46382000D02*
X157353000Y-43715000D01*
X160360000Y-46382000D02*
X157353000Y-46382000D01*
X153560000Y-94715000D02*
X160360000Y-94715000D01*
X160360000Y-43715000D02*
X139360000Y-43715000D01*
D11*
X151240952Y-69667380D02*
X151240952Y-68667380D01*
X150860000Y-68667380D01*
X150764761Y-68715000D01*
X150717142Y-68762619D01*
X150669523Y-68857857D01*
X150669523Y-69000714D01*
X150717142Y-69095952D01*
X150764761Y-69143571D01*
X150860000Y-69191190D01*
X151240952Y-69191190D01*
X150240952Y-69667380D02*
X150240952Y-69000714D01*
X150240952Y-68667380D02*
X150288571Y-68715000D01*
X150240952Y-68762619D01*
X150193333Y-68715000D01*
X150240952Y-68667380D01*
X150240952Y-68762619D01*
X149336190Y-69619761D02*
X149431428Y-69667380D01*
X149621904Y-69667380D01*
X149717142Y-69619761D01*
X149764761Y-69572142D01*
X149812380Y-69476904D01*
X149812380Y-69191190D01*
X149764761Y-69095952D01*
X149717142Y-69048333D01*
X149621904Y-69000714D01*
X149431428Y-69000714D01*
X149336190Y-69048333D01*
X148764761Y-69667380D02*
X148860000Y-69619761D01*
X148907619Y-69572142D01*
X148955238Y-69476904D01*
X148955238Y-69191190D01*
X148907619Y-69095952D01*
X148860000Y-69048333D01*
X148764761Y-69000714D01*
X148621904Y-69000714D01*
X148526666Y-69048333D01*
X148479047Y-69095952D01*
X148431428Y-69191190D01*
X148431428Y-69476904D01*
X148479047Y-69572142D01*
X148526666Y-69619761D01*
X148621904Y-69667380D01*
X148764761Y-69667380D01*
X137708402Y-63955964D02*
X137439028Y-63686590D01*
X137600653Y-64171463D02*
X137977776Y-63417216D01*
X137223529Y-63794340D01*
X137277404Y-62770719D02*
X137358216Y-62797656D01*
X137439028Y-62878468D01*
X137492903Y-62986218D01*
X137492903Y-63093967D01*
X137465966Y-63174780D01*
X137385154Y-63309467D01*
X137304341Y-63390279D01*
X137169654Y-63471091D01*
X137088842Y-63498028D01*
X136981093Y-63498028D01*
X136873343Y-63444154D01*
X136819468Y-63390279D01*
X136765593Y-63282529D01*
X136765593Y-63228654D01*
X136954155Y-63040093D01*
X137061905Y-63147842D01*
X136469282Y-63040093D02*
X137034967Y-62474407D01*
X136146033Y-62716844D01*
X136711719Y-62151158D01*
X135876659Y-62447470D02*
X136442345Y-61881784D01*
X136307658Y-61747097D01*
X136199908Y-61693223D01*
X136092158Y-61693223D01*
X136011346Y-61720160D01*
X135876659Y-61800972D01*
X135795847Y-61881784D01*
X135715035Y-62016471D01*
X135688097Y-62097284D01*
X135688097Y-62205033D01*
X135741972Y-62312783D01*
X135876659Y-62447470D01*
X137773841Y-50313155D02*
X137854653Y-50340093D01*
X137935465Y-50420905D01*
X137989340Y-50528654D01*
X137989340Y-50636404D01*
X137962402Y-50717216D01*
X137881590Y-50851903D01*
X137800778Y-50932715D01*
X137666091Y-51013528D01*
X137585279Y-51040465D01*
X137477529Y-51040465D01*
X137369780Y-50986590D01*
X137315905Y-50932715D01*
X137262030Y-50824966D01*
X137262030Y-50771091D01*
X137450592Y-50582529D01*
X137558341Y-50690279D01*
X136965719Y-50582529D02*
X137531404Y-50016844D01*
X136642470Y-50259280D01*
X137208155Y-49693595D01*
X136373096Y-49989906D02*
X136938781Y-49424221D01*
X136804094Y-49289534D01*
X136696345Y-49235659D01*
X136588595Y-49235659D01*
X136507783Y-49262597D01*
X136373096Y-49343409D01*
X136292284Y-49424221D01*
X136211471Y-49558908D01*
X136184534Y-49639720D01*
X136184534Y-49747470D01*
X136238409Y-49855219D01*
X136373096Y-49989906D01*
X137773841Y-75713155D02*
X137854653Y-75740093D01*
X137935465Y-75820905D01*
X137989340Y-75928654D01*
X137989340Y-76036404D01*
X137962402Y-76117216D01*
X137881590Y-76251903D01*
X137800778Y-76332715D01*
X137666091Y-76413528D01*
X137585279Y-76440465D01*
X137477529Y-76440465D01*
X137369780Y-76386590D01*
X137315905Y-76332715D01*
X137262030Y-76224966D01*
X137262030Y-76171091D01*
X137450592Y-75982529D01*
X137558341Y-76090279D01*
X136965719Y-75982529D02*
X137531404Y-75416844D01*
X136642470Y-75659280D01*
X137208155Y-75093595D01*
X136373096Y-75389906D02*
X136938781Y-74824221D01*
X136804094Y-74689534D01*
X136696345Y-74635659D01*
X136588595Y-74635659D01*
X136507783Y-74662597D01*
X136373096Y-74743409D01*
X136292284Y-74824221D01*
X136211471Y-74958908D01*
X136184534Y-75039720D01*
X136184534Y-75147470D01*
X136238409Y-75255219D01*
X136373096Y-75389906D01*
X137773841Y-88413155D02*
X137854653Y-88440093D01*
X137935465Y-88520905D01*
X137989340Y-88628654D01*
X137989340Y-88736404D01*
X137962402Y-88817216D01*
X137881590Y-88951903D01*
X137800778Y-89032715D01*
X137666091Y-89113528D01*
X137585279Y-89140465D01*
X137477529Y-89140465D01*
X137369780Y-89086590D01*
X137315905Y-89032715D01*
X137262030Y-88924966D01*
X137262030Y-88871091D01*
X137450592Y-88682529D01*
X137558341Y-88790279D01*
X136965719Y-88682529D02*
X137531404Y-88116844D01*
X136642470Y-88359280D01*
X137208155Y-87793595D01*
X136373096Y-88089906D02*
X136938781Y-87524221D01*
X136804094Y-87389534D01*
X136696345Y-87335659D01*
X136588595Y-87335659D01*
X136507783Y-87362597D01*
X136373096Y-87443409D01*
X136292284Y-87524221D01*
X136211471Y-87658908D01*
X136184534Y-87739720D01*
X136184534Y-87847470D01*
X136238409Y-87955219D01*
X136373096Y-88089906D01*
X163373841Y-88413155D02*
X163454653Y-88440093D01*
X163535465Y-88520905D01*
X163589340Y-88628654D01*
X163589340Y-88736404D01*
X163562402Y-88817216D01*
X163481590Y-88951903D01*
X163400778Y-89032715D01*
X163266091Y-89113528D01*
X163185279Y-89140465D01*
X163077529Y-89140465D01*
X162969780Y-89086590D01*
X162915905Y-89032715D01*
X162862030Y-88924966D01*
X162862030Y-88871091D01*
X163050592Y-88682529D01*
X163158341Y-88790279D01*
X162565719Y-88682529D02*
X163131404Y-88116844D01*
X162242470Y-88359280D01*
X162808155Y-87793595D01*
X161973096Y-88089906D02*
X162538781Y-87524221D01*
X162404094Y-87389534D01*
X162296345Y-87335659D01*
X162188595Y-87335659D01*
X162107783Y-87362597D01*
X161973096Y-87443409D01*
X161892284Y-87524221D01*
X161811471Y-87658908D01*
X161784534Y-87739720D01*
X161784534Y-87847470D01*
X161838409Y-87955219D01*
X161973096Y-88089906D01*
X163373841Y-75713155D02*
X163454653Y-75740093D01*
X163535465Y-75820905D01*
X163589340Y-75928654D01*
X163589340Y-76036404D01*
X163562402Y-76117216D01*
X163481590Y-76251903D01*
X163400778Y-76332715D01*
X163266091Y-76413528D01*
X163185279Y-76440465D01*
X163077529Y-76440465D01*
X162969780Y-76386590D01*
X162915905Y-76332715D01*
X162862030Y-76224966D01*
X162862030Y-76171091D01*
X163050592Y-75982529D01*
X163158341Y-76090279D01*
X162565719Y-75982529D02*
X163131404Y-75416844D01*
X162242470Y-75659280D01*
X162808155Y-75093595D01*
X161973096Y-75389906D02*
X162538781Y-74824221D01*
X162404094Y-74689534D01*
X162296345Y-74635659D01*
X162188595Y-74635659D01*
X162107783Y-74662597D01*
X161973096Y-74743409D01*
X161892284Y-74824221D01*
X161811471Y-74958908D01*
X161784534Y-75039720D01*
X161784534Y-75147470D01*
X161838409Y-75255219D01*
X161973096Y-75389906D01*
X163373841Y-63013155D02*
X163454653Y-63040093D01*
X163535465Y-63120905D01*
X163589340Y-63228654D01*
X163589340Y-63336404D01*
X163562402Y-63417216D01*
X163481590Y-63551903D01*
X163400778Y-63632715D01*
X163266091Y-63713528D01*
X163185279Y-63740465D01*
X163077529Y-63740465D01*
X162969780Y-63686590D01*
X162915905Y-63632715D01*
X162862030Y-63524966D01*
X162862030Y-63471091D01*
X163050592Y-63282529D01*
X163158341Y-63390279D01*
X162565719Y-63282529D02*
X163131404Y-62716844D01*
X162242470Y-62959280D01*
X162808155Y-62393595D01*
X161973096Y-62689906D02*
X162538781Y-62124221D01*
X162404094Y-61989534D01*
X162296345Y-61935659D01*
X162188595Y-61935659D01*
X162107783Y-61962597D01*
X161973096Y-62043409D01*
X161892284Y-62124221D01*
X161811471Y-62258908D01*
X161784534Y-62339720D01*
X161784534Y-62447470D01*
X161838409Y-62555219D01*
X161973096Y-62689906D01*
X163373841Y-50313155D02*
X163454653Y-50340093D01*
X163535465Y-50420905D01*
X163589340Y-50528654D01*
X163589340Y-50636404D01*
X163562402Y-50717216D01*
X163481590Y-50851903D01*
X163400778Y-50932715D01*
X163266091Y-51013528D01*
X163185279Y-51040465D01*
X163077529Y-51040465D01*
X162969780Y-50986590D01*
X162915905Y-50932715D01*
X162862030Y-50824966D01*
X162862030Y-50771091D01*
X163050592Y-50582529D01*
X163158341Y-50690279D01*
X162565719Y-50582529D02*
X163131404Y-50016844D01*
X162242470Y-50259280D01*
X162808155Y-49693595D01*
X161973096Y-49989906D02*
X162538781Y-49424221D01*
X162404094Y-49289534D01*
X162296345Y-49235659D01*
X162188595Y-49235659D01*
X162107783Y-49262597D01*
X161973096Y-49343409D01*
X161892284Y-49424221D01*
X161811471Y-49558908D01*
X161784534Y-49639720D01*
X161784534Y-49747470D01*
X161838409Y-49855219D01*
X161973096Y-49989906D01*
X137906870Y-45742309D02*
X137152622Y-46119433D01*
X137529746Y-45365186D01*
X136883248Y-45257436D02*
X136775499Y-45203561D01*
X136721624Y-45203561D01*
X136640812Y-45230499D01*
X136560000Y-45311311D01*
X136533062Y-45392123D01*
X136533062Y-45445998D01*
X136560000Y-45526810D01*
X136775499Y-45742309D01*
X137341184Y-45176624D01*
X137152622Y-44988062D01*
X137071810Y-44961125D01*
X137017935Y-44961125D01*
X136937123Y-44988062D01*
X136883248Y-45041937D01*
X136856311Y-45122749D01*
X136856311Y-45176624D01*
X136883248Y-45257436D01*
X137071810Y-45445998D01*
X136775499Y-44610938D02*
X136317563Y-45068874D01*
X136236751Y-45095812D01*
X136182876Y-45095812D01*
X136102064Y-45068874D01*
X135994314Y-44961125D01*
X135967377Y-44880312D01*
X135967377Y-44826438D01*
X135994314Y-44745625D01*
X136452250Y-44287690D01*
X135671065Y-44584001D02*
X135563316Y-44530126D01*
X135428629Y-44395439D01*
X135401691Y-44314627D01*
X135401691Y-44260752D01*
X135428629Y-44179940D01*
X135482503Y-44126065D01*
X135563316Y-44099128D01*
X135617190Y-44099128D01*
X135698003Y-44126065D01*
X135832690Y-44206877D01*
X135913502Y-44233815D01*
X135967377Y-44233815D01*
X136048189Y-44206877D01*
X136102064Y-44153003D01*
X136129001Y-44072190D01*
X136129001Y-44018316D01*
X136102064Y-43937503D01*
X135967377Y-43802816D01*
X135859627Y-43748942D01*
X137939526Y-48284966D02*
X137185279Y-48662089D01*
X137562402Y-47907842D01*
X136862030Y-48284966D02*
X136754280Y-48231091D01*
X136619593Y-48096404D01*
X136592656Y-48015592D01*
X136592656Y-47961717D01*
X136619593Y-47880905D01*
X136673468Y-47827030D01*
X136754280Y-47800093D01*
X136808155Y-47800093D01*
X136888967Y-47827030D01*
X137023654Y-47907842D01*
X137104467Y-47934780D01*
X137158341Y-47934780D01*
X137239154Y-47907842D01*
X137293028Y-47853967D01*
X137319966Y-47773155D01*
X137319966Y-47719280D01*
X137293028Y-47638468D01*
X137158341Y-47503781D01*
X137050592Y-47449906D01*
X136431032Y-47369094D02*
X136161658Y-47638468D01*
X136915905Y-47261345D02*
X136431032Y-47369094D01*
X136538781Y-46884221D01*
X135838409Y-47261345D02*
X135730659Y-47207470D01*
X135595972Y-47072783D01*
X135569035Y-46991971D01*
X135569035Y-46938096D01*
X135595972Y-46857284D01*
X135649847Y-46803409D01*
X135730659Y-46776471D01*
X135784534Y-46776471D01*
X135865346Y-46803409D01*
X136000033Y-46884221D01*
X136080845Y-46911158D01*
X136134720Y-46911158D01*
X136215532Y-46884221D01*
X136269407Y-46830346D01*
X136296345Y-46749534D01*
X136296345Y-46695659D01*
X136269407Y-46614847D01*
X136134720Y-46480160D01*
X136026971Y-46426285D01*
X137937868Y-53173308D02*
X137587682Y-52823122D01*
X137560744Y-53227183D01*
X137479932Y-53146370D01*
X137399120Y-53119433D01*
X137345245Y-53119433D01*
X137264433Y-53146370D01*
X137129746Y-53281057D01*
X137102809Y-53361870D01*
X137102809Y-53415744D01*
X137129746Y-53496557D01*
X137291370Y-53658181D01*
X137372183Y-53685118D01*
X137426057Y-53685118D01*
X137426057Y-52661497D02*
X136671810Y-53038621D01*
X137048934Y-52284374D01*
X136914247Y-52149687D02*
X136564061Y-51799500D01*
X136537123Y-52203561D01*
X136456311Y-52122749D01*
X136375499Y-52095812D01*
X136321624Y-52095812D01*
X136240812Y-52122749D01*
X136106125Y-52257436D01*
X136079187Y-52338248D01*
X136079187Y-52392123D01*
X136106125Y-52472935D01*
X136267749Y-52634560D01*
X136348561Y-52661497D01*
X136402436Y-52661497D01*
X135836751Y-52311311D02*
X135405752Y-51880312D01*
X135621251Y-51395439D02*
X135432690Y-51206877D01*
X135055566Y-51422377D02*
X135324940Y-51691751D01*
X135890625Y-51126065D01*
X135621251Y-50856691D01*
X134813129Y-51179940D02*
X135378815Y-50614255D01*
X134489881Y-50856691D01*
X135055566Y-50291006D01*
X137970152Y-55705592D02*
X137619966Y-55355406D01*
X137593028Y-55759467D01*
X137512216Y-55678654D01*
X137431404Y-55651717D01*
X137377529Y-55651717D01*
X137296717Y-55678654D01*
X137162030Y-55813341D01*
X137135093Y-55894154D01*
X137135093Y-55948028D01*
X137162030Y-56028841D01*
X137323654Y-56190465D01*
X137404467Y-56217402D01*
X137458341Y-56217402D01*
X137458341Y-55193781D02*
X136704094Y-55570905D01*
X137081218Y-54816658D01*
X136946531Y-54681971D02*
X136596345Y-54331784D01*
X136569407Y-54735845D01*
X136488595Y-54655033D01*
X136407783Y-54628096D01*
X136353908Y-54628096D01*
X136273096Y-54655033D01*
X136138409Y-54789720D01*
X136111471Y-54870532D01*
X136111471Y-54924407D01*
X136138409Y-55005219D01*
X136300033Y-55166844D01*
X136380845Y-55193781D01*
X136434720Y-55193781D01*
X137705211Y-58748773D02*
X137435837Y-58479399D01*
X137597462Y-58964272D02*
X137974585Y-58210025D01*
X137220338Y-58587149D01*
X137031776Y-58398587D02*
X137597462Y-57832902D01*
X137462775Y-57698215D01*
X137355025Y-57644340D01*
X137247276Y-57644340D01*
X137166463Y-57671277D01*
X137031776Y-57752089D01*
X136950964Y-57832902D01*
X136870152Y-57967589D01*
X136843215Y-58048401D01*
X136843215Y-58156150D01*
X136897089Y-58263900D01*
X137031776Y-58398587D01*
X136196717Y-57455778D02*
X136196717Y-57509653D01*
X136250592Y-57617402D01*
X136304467Y-57671277D01*
X136412216Y-57725152D01*
X136519966Y-57725152D01*
X136600778Y-57698215D01*
X136735465Y-57617402D01*
X136816277Y-57536590D01*
X136897089Y-57401903D01*
X136924027Y-57321091D01*
X136924027Y-57213341D01*
X136870152Y-57105592D01*
X136816277Y-57051717D01*
X136708528Y-56997842D01*
X136654653Y-56997842D01*
X135981218Y-57455778D02*
X135550219Y-57024780D01*
X136115905Y-56351345D02*
X135361658Y-56728468D01*
X135738781Y-55974221D01*
X134661285Y-56028096D02*
X135119221Y-55947284D01*
X134984534Y-56351345D02*
X135550219Y-55785659D01*
X135334720Y-55570160D01*
X135253908Y-55543223D01*
X135200033Y-55543223D01*
X135119221Y-55570160D01*
X135038409Y-55650972D01*
X135011471Y-55731784D01*
X135011471Y-55785659D01*
X135038409Y-55866471D01*
X135253908Y-56081971D01*
X134715160Y-55489348D02*
X134526598Y-55300786D01*
X134149475Y-55516285D02*
X134418849Y-55785659D01*
X134984534Y-55219974D01*
X134715160Y-54950600D01*
X134014788Y-54788975D02*
X134203349Y-54977537D01*
X133907038Y-55273849D02*
X134472723Y-54708163D01*
X134203349Y-54438789D01*
X137762277Y-60461592D02*
X137843089Y-60488529D01*
X137923902Y-60569341D01*
X137977776Y-60677091D01*
X137977776Y-60784841D01*
X137950839Y-60865653D01*
X137870027Y-61000340D01*
X137789215Y-61081152D01*
X137654528Y-61161964D01*
X137573715Y-61188902D01*
X137465966Y-61188902D01*
X137358216Y-61135027D01*
X137304341Y-61081152D01*
X137250467Y-60973402D01*
X137250467Y-60919528D01*
X137439028Y-60730966D01*
X137546778Y-60838715D01*
X136954155Y-60730966D02*
X137519841Y-60165280D01*
X137304341Y-59949781D01*
X137223529Y-59922844D01*
X137169654Y-59922844D01*
X137088842Y-59949781D01*
X137008030Y-60030593D01*
X136981093Y-60111406D01*
X136981093Y-60165280D01*
X137008030Y-60246093D01*
X137223529Y-60461592D01*
X136927218Y-59680407D02*
X136927218Y-59626532D01*
X136900280Y-59545720D01*
X136765593Y-59411033D01*
X136684781Y-59384096D01*
X136630906Y-59384096D01*
X136550094Y-59411033D01*
X136496219Y-59464908D01*
X136442345Y-59572658D01*
X136442345Y-60219155D01*
X136092158Y-59868969D01*
X136092158Y-59222471D02*
X136172971Y-59249409D01*
X136226845Y-59249409D01*
X136307658Y-59222471D01*
X136334595Y-59195534D01*
X136361532Y-59114722D01*
X136361532Y-59060847D01*
X136334595Y-58980035D01*
X136226845Y-58872285D01*
X136146033Y-58845348D01*
X136092158Y-58845348D01*
X136011346Y-58872285D01*
X135984409Y-58899223D01*
X135957471Y-58980035D01*
X135957471Y-59033910D01*
X135984409Y-59114722D01*
X136092158Y-59222471D01*
X136119096Y-59303284D01*
X136119096Y-59357158D01*
X136092158Y-59437971D01*
X135984409Y-59545720D01*
X135903597Y-59572658D01*
X135849722Y-59572658D01*
X135768910Y-59545720D01*
X135661160Y-59437971D01*
X135634223Y-59357158D01*
X135634223Y-59303284D01*
X135661160Y-59222471D01*
X135768910Y-59114722D01*
X135849722Y-59087784D01*
X135903597Y-59087784D01*
X135984409Y-59114722D01*
X137762277Y-65805592D02*
X137843089Y-65832529D01*
X137923902Y-65913341D01*
X137977776Y-66021091D01*
X137977776Y-66128841D01*
X137950839Y-66209653D01*
X137870027Y-66344340D01*
X137789215Y-66425152D01*
X137654528Y-66505964D01*
X137573715Y-66532902D01*
X137465966Y-66532902D01*
X137358216Y-66479027D01*
X137304341Y-66425152D01*
X137250467Y-66317402D01*
X137250467Y-66263528D01*
X137439028Y-66074966D01*
X137546778Y-66182715D01*
X136954155Y-66074966D02*
X137519841Y-65509280D01*
X137304341Y-65293781D01*
X137223529Y-65266844D01*
X137169654Y-65266844D01*
X137088842Y-65293781D01*
X137008030Y-65374593D01*
X136981093Y-65455406D01*
X136981093Y-65509280D01*
X137008030Y-65590093D01*
X137223529Y-65805592D01*
X136927218Y-65024407D02*
X136927218Y-64970532D01*
X136900280Y-64889720D01*
X136765593Y-64755033D01*
X136684781Y-64728096D01*
X136630906Y-64728096D01*
X136550094Y-64755033D01*
X136496219Y-64808908D01*
X136442345Y-64916658D01*
X136442345Y-65563155D01*
X136092158Y-65212969D01*
X136469282Y-64458722D02*
X136092158Y-64081598D01*
X135768910Y-64889720D01*
X137762277Y-68335592D02*
X137843089Y-68362529D01*
X137923902Y-68443341D01*
X137977776Y-68551091D01*
X137977776Y-68658841D01*
X137950839Y-68739653D01*
X137870027Y-68874340D01*
X137789215Y-68955152D01*
X137654528Y-69035964D01*
X137573715Y-69062902D01*
X137465966Y-69062902D01*
X137358216Y-69009027D01*
X137304341Y-68955152D01*
X137250467Y-68847402D01*
X137250467Y-68793528D01*
X137439028Y-68604966D01*
X137546778Y-68712715D01*
X136954155Y-68604966D02*
X137519841Y-68039280D01*
X137304341Y-67823781D01*
X137223529Y-67796844D01*
X137169654Y-67796844D01*
X137088842Y-67823781D01*
X137008030Y-67904593D01*
X136981093Y-67985406D01*
X136981093Y-68039280D01*
X137008030Y-68120093D01*
X137223529Y-68335592D01*
X136927218Y-67554407D02*
X136927218Y-67500532D01*
X136900280Y-67419720D01*
X136765593Y-67285033D01*
X136684781Y-67258096D01*
X136630906Y-67258096D01*
X136550094Y-67285033D01*
X136496219Y-67338908D01*
X136442345Y-67446658D01*
X136442345Y-68093155D01*
X136092158Y-67742969D01*
X136172971Y-66692410D02*
X136280720Y-66800160D01*
X136307658Y-66880972D01*
X136307658Y-66934847D01*
X136280720Y-67069534D01*
X136199908Y-67204221D01*
X135984409Y-67419720D01*
X135903597Y-67446658D01*
X135849722Y-67446658D01*
X135768910Y-67419720D01*
X135661160Y-67311971D01*
X135634223Y-67231158D01*
X135634223Y-67177284D01*
X135661160Y-67096471D01*
X135795847Y-66961784D01*
X135876659Y-66934847D01*
X135930534Y-66934847D01*
X136011346Y-66961784D01*
X136119096Y-67069534D01*
X136146033Y-67150346D01*
X136146033Y-67204221D01*
X136119096Y-67285033D01*
X137021624Y-71158435D02*
X137479560Y-71077622D01*
X137344873Y-71481683D02*
X137910558Y-70915998D01*
X137695059Y-70700499D01*
X137614247Y-70673561D01*
X137560372Y-70673561D01*
X137479560Y-70700499D01*
X137398748Y-70781311D01*
X137371810Y-70862123D01*
X137371810Y-70915998D01*
X137398748Y-70996810D01*
X137614247Y-71212309D01*
X137344873Y-70350312D02*
X136886937Y-70808248D01*
X136806125Y-70835186D01*
X136752250Y-70835186D01*
X136671438Y-70808248D01*
X136563688Y-70700499D01*
X136536751Y-70619687D01*
X136536751Y-70565812D01*
X136563688Y-70485000D01*
X137021624Y-70027064D01*
X136186564Y-70323375D02*
X136752250Y-69757690D01*
X135863316Y-70000126D01*
X136429001Y-69434441D01*
X137762277Y-73415592D02*
X137843089Y-73442529D01*
X137923902Y-73523341D01*
X137977776Y-73631091D01*
X137977776Y-73738841D01*
X137950839Y-73819653D01*
X137870027Y-73954340D01*
X137789215Y-74035152D01*
X137654528Y-74115964D01*
X137573715Y-74142902D01*
X137465966Y-74142902D01*
X137358216Y-74089027D01*
X137304341Y-74035152D01*
X137250467Y-73927402D01*
X137250467Y-73873528D01*
X137439028Y-73684966D01*
X137546778Y-73792715D01*
X136954155Y-73684966D02*
X137519841Y-73119280D01*
X137304341Y-72903781D01*
X137223529Y-72876844D01*
X137169654Y-72876844D01*
X137088842Y-72903781D01*
X137008030Y-72984593D01*
X136981093Y-73065406D01*
X136981093Y-73119280D01*
X137008030Y-73200093D01*
X137223529Y-73415592D01*
X136927218Y-72634407D02*
X136927218Y-72580532D01*
X136900280Y-72499720D01*
X136765593Y-72365033D01*
X136684781Y-72338096D01*
X136630906Y-72338096D01*
X136550094Y-72365033D01*
X136496219Y-72418908D01*
X136442345Y-72526658D01*
X136442345Y-73173155D01*
X136092158Y-72822969D01*
X136388470Y-72095659D02*
X136388470Y-72041784D01*
X136361532Y-71960972D01*
X136226845Y-71826285D01*
X136146033Y-71799348D01*
X136092158Y-71799348D01*
X136011346Y-71826285D01*
X135957471Y-71880160D01*
X135903597Y-71987910D01*
X135903597Y-72634407D01*
X135553410Y-72284221D01*
X137762277Y-78505592D02*
X137843089Y-78532529D01*
X137923902Y-78613341D01*
X137977776Y-78721091D01*
X137977776Y-78828841D01*
X137950839Y-78909653D01*
X137870027Y-79044340D01*
X137789215Y-79125152D01*
X137654528Y-79205964D01*
X137573715Y-79232902D01*
X137465966Y-79232902D01*
X137358216Y-79179027D01*
X137304341Y-79125152D01*
X137250467Y-79017402D01*
X137250467Y-78963528D01*
X137439028Y-78774966D01*
X137546778Y-78882715D01*
X136954155Y-78774966D02*
X137519841Y-78209280D01*
X137304341Y-77993781D01*
X137223529Y-77966844D01*
X137169654Y-77966844D01*
X137088842Y-77993781D01*
X137008030Y-78074593D01*
X136981093Y-78155406D01*
X136981093Y-78209280D01*
X137008030Y-78290093D01*
X137223529Y-78505592D01*
X136927218Y-77724407D02*
X136927218Y-77670532D01*
X136900280Y-77589720D01*
X136765593Y-77455033D01*
X136684781Y-77428096D01*
X136630906Y-77428096D01*
X136550094Y-77455033D01*
X136496219Y-77508908D01*
X136442345Y-77616658D01*
X136442345Y-78263155D01*
X136092158Y-77912969D01*
X135553410Y-77374221D02*
X135876659Y-77697470D01*
X135715035Y-77535845D02*
X136280720Y-76970160D01*
X136253783Y-77104847D01*
X136253783Y-77212597D01*
X136280720Y-77293409D01*
X137762277Y-81035592D02*
X137843089Y-81062529D01*
X137923902Y-81143341D01*
X137977776Y-81251091D01*
X137977776Y-81358841D01*
X137950839Y-81439653D01*
X137870027Y-81574340D01*
X137789215Y-81655152D01*
X137654528Y-81735964D01*
X137573715Y-81762902D01*
X137465966Y-81762902D01*
X137358216Y-81709027D01*
X137304341Y-81655152D01*
X137250467Y-81547402D01*
X137250467Y-81493528D01*
X137439028Y-81304966D01*
X137546778Y-81412715D01*
X136954155Y-81304966D02*
X137519841Y-80739280D01*
X137304341Y-80523781D01*
X137223529Y-80496844D01*
X137169654Y-80496844D01*
X137088842Y-80523781D01*
X137008030Y-80604593D01*
X136981093Y-80685406D01*
X136981093Y-80739280D01*
X137008030Y-80820093D01*
X137223529Y-81035592D01*
X136927218Y-80254407D02*
X136927218Y-80200532D01*
X136900280Y-80119720D01*
X136765593Y-79985033D01*
X136684781Y-79958096D01*
X136630906Y-79958096D01*
X136550094Y-79985033D01*
X136496219Y-80038908D01*
X136442345Y-80146658D01*
X136442345Y-80793155D01*
X136092158Y-80442969D01*
X136307658Y-79527097D02*
X136253783Y-79473223D01*
X136172971Y-79446285D01*
X136119096Y-79446285D01*
X136038284Y-79473223D01*
X135903597Y-79554035D01*
X135768910Y-79688722D01*
X135688097Y-79823409D01*
X135661160Y-79904221D01*
X135661160Y-79958096D01*
X135688097Y-80038908D01*
X135741972Y-80092783D01*
X135822784Y-80119720D01*
X135876659Y-80119720D01*
X135957471Y-80092783D01*
X136092158Y-80011971D01*
X136226845Y-79877284D01*
X136307658Y-79742597D01*
X136334595Y-79661784D01*
X136334595Y-79607910D01*
X136307658Y-79527097D01*
X137762277Y-83575592D02*
X137843089Y-83602529D01*
X137923902Y-83683341D01*
X137977776Y-83791091D01*
X137977776Y-83898841D01*
X137950839Y-83979653D01*
X137870027Y-84114340D01*
X137789215Y-84195152D01*
X137654528Y-84275964D01*
X137573715Y-84302902D01*
X137465966Y-84302902D01*
X137358216Y-84249027D01*
X137304341Y-84195152D01*
X137250467Y-84087402D01*
X137250467Y-84033528D01*
X137439028Y-83844966D01*
X137546778Y-83952715D01*
X136954155Y-83844966D02*
X137519841Y-83279280D01*
X137304341Y-83063781D01*
X137223529Y-83036844D01*
X137169654Y-83036844D01*
X137088842Y-83063781D01*
X137008030Y-83144593D01*
X136981093Y-83225406D01*
X136981093Y-83279280D01*
X137008030Y-83360093D01*
X137223529Y-83575592D01*
X136092158Y-82982969D02*
X136415407Y-83306218D01*
X136253783Y-83144593D02*
X136819468Y-82578908D01*
X136792531Y-82713595D01*
X136792531Y-82821345D01*
X136819468Y-82902157D01*
X135822784Y-82713595D02*
X135715035Y-82605845D01*
X135688097Y-82525033D01*
X135688097Y-82471158D01*
X135715035Y-82336471D01*
X135795847Y-82201784D01*
X136011346Y-81986285D01*
X136092158Y-81959348D01*
X136146033Y-81959348D01*
X136226845Y-81986285D01*
X136334595Y-82094035D01*
X136361532Y-82174847D01*
X136361532Y-82228722D01*
X136334595Y-82309534D01*
X136199908Y-82444221D01*
X136119096Y-82471158D01*
X136065221Y-82471158D01*
X135984409Y-82444221D01*
X135876659Y-82336471D01*
X135849722Y-82255659D01*
X135849722Y-82201784D01*
X135876659Y-82120972D01*
X137762277Y-86115592D02*
X137843089Y-86142529D01*
X137923902Y-86223341D01*
X137977776Y-86331091D01*
X137977776Y-86438841D01*
X137950839Y-86519653D01*
X137870027Y-86654340D01*
X137789215Y-86735152D01*
X137654528Y-86815964D01*
X137573715Y-86842902D01*
X137465966Y-86842902D01*
X137358216Y-86789027D01*
X137304341Y-86735152D01*
X137250467Y-86627402D01*
X137250467Y-86573528D01*
X137439028Y-86384966D01*
X137546778Y-86492715D01*
X136954155Y-86384966D02*
X137519841Y-85819280D01*
X137304341Y-85603781D01*
X137223529Y-85576844D01*
X137169654Y-85576844D01*
X137088842Y-85603781D01*
X137008030Y-85684593D01*
X136981093Y-85765406D01*
X136981093Y-85819280D01*
X137008030Y-85900093D01*
X137223529Y-86115592D01*
X136092158Y-85522969D02*
X136415407Y-85846218D01*
X136253783Y-85684593D02*
X136819468Y-85118908D01*
X136792531Y-85253595D01*
X136792531Y-85361345D01*
X136819468Y-85442157D01*
X136092158Y-84876471D02*
X136172971Y-84903409D01*
X136226845Y-84903409D01*
X136307658Y-84876471D01*
X136334595Y-84849534D01*
X136361532Y-84768722D01*
X136361532Y-84714847D01*
X136334595Y-84634035D01*
X136226845Y-84526285D01*
X136146033Y-84499348D01*
X136092158Y-84499348D01*
X136011346Y-84526285D01*
X135984409Y-84553223D01*
X135957471Y-84634035D01*
X135957471Y-84687910D01*
X135984409Y-84768722D01*
X136092158Y-84876471D01*
X136119096Y-84957284D01*
X136119096Y-85011158D01*
X136092158Y-85091971D01*
X135984409Y-85199720D01*
X135903597Y-85226658D01*
X135849722Y-85226658D01*
X135768910Y-85199720D01*
X135661160Y-85091971D01*
X135634223Y-85011158D01*
X135634223Y-84957284D01*
X135661160Y-84876471D01*
X135768910Y-84768722D01*
X135849722Y-84741784D01*
X135903597Y-84741784D01*
X135984409Y-84768722D01*
X137762277Y-91195592D02*
X137843089Y-91222529D01*
X137923902Y-91303341D01*
X137977776Y-91411091D01*
X137977776Y-91518841D01*
X137950839Y-91599653D01*
X137870027Y-91734340D01*
X137789215Y-91815152D01*
X137654528Y-91895964D01*
X137573715Y-91922902D01*
X137465966Y-91922902D01*
X137358216Y-91869027D01*
X137304341Y-91815152D01*
X137250467Y-91707402D01*
X137250467Y-91653528D01*
X137439028Y-91464966D01*
X137546778Y-91572715D01*
X136954155Y-91464966D02*
X137519841Y-90899280D01*
X137304341Y-90683781D01*
X137223529Y-90656844D01*
X137169654Y-90656844D01*
X137088842Y-90683781D01*
X137008030Y-90764593D01*
X136981093Y-90845406D01*
X136981093Y-90899280D01*
X137008030Y-90980093D01*
X137223529Y-91195592D01*
X136092158Y-90602969D02*
X136415407Y-90926218D01*
X136253783Y-90764593D02*
X136819468Y-90198908D01*
X136792531Y-90333595D01*
X136792531Y-90441345D01*
X136819468Y-90522157D01*
X136469282Y-89848722D02*
X136092158Y-89471598D01*
X135768910Y-90279720D01*
X137762277Y-93735592D02*
X137843089Y-93762529D01*
X137923902Y-93843341D01*
X137977776Y-93951091D01*
X137977776Y-94058841D01*
X137950839Y-94139653D01*
X137870027Y-94274340D01*
X137789215Y-94355152D01*
X137654528Y-94435964D01*
X137573715Y-94462902D01*
X137465966Y-94462902D01*
X137358216Y-94409027D01*
X137304341Y-94355152D01*
X137250467Y-94247402D01*
X137250467Y-94193528D01*
X137439028Y-94004966D01*
X137546778Y-94112715D01*
X136954155Y-94004966D02*
X137519841Y-93439280D01*
X137304341Y-93223781D01*
X137223529Y-93196844D01*
X137169654Y-93196844D01*
X137088842Y-93223781D01*
X137008030Y-93304593D01*
X136981093Y-93385406D01*
X136981093Y-93439280D01*
X137008030Y-93520093D01*
X137223529Y-93735592D01*
X136092158Y-93142969D02*
X136415407Y-93466218D01*
X136253783Y-93304593D02*
X136819468Y-92738908D01*
X136792531Y-92873595D01*
X136792531Y-92981345D01*
X136819468Y-93062157D01*
X136172971Y-92092410D02*
X136280720Y-92200160D01*
X136307658Y-92280972D01*
X136307658Y-92334847D01*
X136280720Y-92469534D01*
X136199908Y-92604221D01*
X135984409Y-92819720D01*
X135903597Y-92846658D01*
X135849722Y-92846658D01*
X135768910Y-92819720D01*
X135661160Y-92711971D01*
X135634223Y-92631158D01*
X135634223Y-92577284D01*
X135661160Y-92496471D01*
X135795847Y-92361784D01*
X135876659Y-92334847D01*
X135930534Y-92334847D01*
X136011346Y-92361784D01*
X136119096Y-92469534D01*
X136146033Y-92550346D01*
X136146033Y-92604221D01*
X136119096Y-92685033D01*
X163870277Y-93735592D02*
X163951089Y-93762529D01*
X164031902Y-93843341D01*
X164085776Y-93951091D01*
X164085776Y-94058841D01*
X164058839Y-94139653D01*
X163978027Y-94274340D01*
X163897215Y-94355152D01*
X163762528Y-94435964D01*
X163681715Y-94462902D01*
X163573966Y-94462902D01*
X163466216Y-94409027D01*
X163412341Y-94355152D01*
X163358467Y-94247402D01*
X163358467Y-94193528D01*
X163547028Y-94004966D01*
X163654778Y-94112715D01*
X163062155Y-94004966D02*
X163627841Y-93439280D01*
X163412341Y-93223781D01*
X163331529Y-93196844D01*
X163277654Y-93196844D01*
X163196842Y-93223781D01*
X163116030Y-93304593D01*
X163089093Y-93385406D01*
X163089093Y-93439280D01*
X163116030Y-93520093D01*
X163331529Y-93735592D01*
X162200158Y-93142969D02*
X162523407Y-93466218D01*
X162361783Y-93304593D02*
X162927468Y-92738908D01*
X162900531Y-92873595D01*
X162900531Y-92981345D01*
X162927468Y-93062157D01*
X162254033Y-92065473D02*
X162523407Y-92334847D01*
X162280971Y-92631158D01*
X162280971Y-92577284D01*
X162254033Y-92496471D01*
X162119346Y-92361784D01*
X162038534Y-92334847D01*
X161984659Y-92334847D01*
X161903847Y-92361784D01*
X161769160Y-92496471D01*
X161742223Y-92577284D01*
X161742223Y-92631158D01*
X161769160Y-92711971D01*
X161903847Y-92846658D01*
X161984659Y-92873595D01*
X162038534Y-92873595D01*
X163916277Y-91195592D02*
X163997089Y-91222529D01*
X164077902Y-91303341D01*
X164131776Y-91411091D01*
X164131776Y-91518841D01*
X164104839Y-91599653D01*
X164024027Y-91734340D01*
X163943215Y-91815152D01*
X163808528Y-91895964D01*
X163727715Y-91922902D01*
X163619966Y-91922902D01*
X163512216Y-91869027D01*
X163458341Y-91815152D01*
X163404467Y-91707402D01*
X163404467Y-91653528D01*
X163593028Y-91464966D01*
X163700778Y-91572715D01*
X163108155Y-91464966D02*
X163673841Y-90899280D01*
X163458341Y-90683781D01*
X163377529Y-90656844D01*
X163323654Y-90656844D01*
X163242842Y-90683781D01*
X163162030Y-90764593D01*
X163135093Y-90845406D01*
X163135093Y-90899280D01*
X163162030Y-90980093D01*
X163377529Y-91195592D01*
X162246158Y-90602969D02*
X162569407Y-90926218D01*
X162407783Y-90764593D02*
X162973468Y-90198908D01*
X162946531Y-90333595D01*
X162946531Y-90441345D01*
X162973468Y-90522157D01*
X162138409Y-89740972D02*
X161761285Y-90118096D01*
X162488595Y-89660160D02*
X162219221Y-90198908D01*
X161869035Y-89848722D01*
X163870277Y-86115592D02*
X163951089Y-86142529D01*
X164031902Y-86223341D01*
X164085776Y-86331091D01*
X164085776Y-86438841D01*
X164058839Y-86519653D01*
X163978027Y-86654340D01*
X163897215Y-86735152D01*
X163762528Y-86815964D01*
X163681715Y-86842902D01*
X163573966Y-86842902D01*
X163466216Y-86789027D01*
X163412341Y-86735152D01*
X163358467Y-86627402D01*
X163358467Y-86573528D01*
X163547028Y-86384966D01*
X163654778Y-86492715D01*
X163062155Y-86384966D02*
X163627841Y-85819280D01*
X163412341Y-85603781D01*
X163331529Y-85576844D01*
X163277654Y-85576844D01*
X163196842Y-85603781D01*
X163116030Y-85684593D01*
X163089093Y-85765406D01*
X163089093Y-85819280D01*
X163116030Y-85900093D01*
X163331529Y-86115592D01*
X162200158Y-85522969D02*
X162523407Y-85846218D01*
X162361783Y-85684593D02*
X162927468Y-85118908D01*
X162900531Y-85253595D01*
X162900531Y-85361345D01*
X162927468Y-85442157D01*
X162577282Y-84768722D02*
X162227096Y-84418536D01*
X162200158Y-84822597D01*
X162119346Y-84741784D01*
X162038534Y-84714847D01*
X161984659Y-84714847D01*
X161903847Y-84741784D01*
X161769160Y-84876471D01*
X161742223Y-84957284D01*
X161742223Y-85011158D01*
X161769160Y-85091971D01*
X161930784Y-85253595D01*
X162011597Y-85280532D01*
X162065471Y-85280532D01*
X164016277Y-83575592D02*
X164097089Y-83602529D01*
X164177902Y-83683341D01*
X164231776Y-83791091D01*
X164231776Y-83898841D01*
X164204839Y-83979653D01*
X164124027Y-84114340D01*
X164043215Y-84195152D01*
X163908528Y-84275964D01*
X163827715Y-84302902D01*
X163719966Y-84302902D01*
X163612216Y-84249027D01*
X163558341Y-84195152D01*
X163504467Y-84087402D01*
X163504467Y-84033528D01*
X163693028Y-83844966D01*
X163800778Y-83952715D01*
X163208155Y-83844966D02*
X163773841Y-83279280D01*
X163558341Y-83063781D01*
X163477529Y-83036844D01*
X163423654Y-83036844D01*
X163342842Y-83063781D01*
X163262030Y-83144593D01*
X163235093Y-83225406D01*
X163235093Y-83279280D01*
X163262030Y-83360093D01*
X163477529Y-83575592D01*
X162346158Y-82982969D02*
X162669407Y-83306218D01*
X162507783Y-83144593D02*
X163073468Y-82578908D01*
X163046531Y-82713595D01*
X163046531Y-82821345D01*
X163073468Y-82902157D01*
X162642470Y-82255659D02*
X162642470Y-82201784D01*
X162615532Y-82120972D01*
X162480845Y-81986285D01*
X162400033Y-81959348D01*
X162346158Y-81959348D01*
X162265346Y-81986285D01*
X162211471Y-82040160D01*
X162157597Y-82147910D01*
X162157597Y-82794407D01*
X161807410Y-82444221D01*
X164016277Y-81035592D02*
X164097089Y-81062529D01*
X164177902Y-81143341D01*
X164231776Y-81251091D01*
X164231776Y-81358841D01*
X164204839Y-81439653D01*
X164124027Y-81574340D01*
X164043215Y-81655152D01*
X163908528Y-81735964D01*
X163827715Y-81762902D01*
X163719966Y-81762902D01*
X163612216Y-81709027D01*
X163558341Y-81655152D01*
X163504467Y-81547402D01*
X163504467Y-81493528D01*
X163693028Y-81304966D01*
X163800778Y-81412715D01*
X163208155Y-81304966D02*
X163773841Y-80739280D01*
X163558341Y-80523781D01*
X163477529Y-80496844D01*
X163423654Y-80496844D01*
X163342842Y-80523781D01*
X163262030Y-80604593D01*
X163235093Y-80685406D01*
X163235093Y-80739280D01*
X163262030Y-80820093D01*
X163477529Y-81035592D01*
X162346158Y-80442969D02*
X162669407Y-80766218D01*
X162507783Y-80604593D02*
X163073468Y-80038908D01*
X163046531Y-80173595D01*
X163046531Y-80281345D01*
X163073468Y-80362157D01*
X161807410Y-79904221D02*
X162130659Y-80227470D01*
X161969035Y-80065845D02*
X162534720Y-79500160D01*
X162507783Y-79634847D01*
X162507783Y-79742597D01*
X162534720Y-79823409D01*
X163870277Y-78495592D02*
X163951089Y-78522529D01*
X164031902Y-78603341D01*
X164085776Y-78711091D01*
X164085776Y-78818841D01*
X164058839Y-78899653D01*
X163978027Y-79034340D01*
X163897215Y-79115152D01*
X163762528Y-79195964D01*
X163681715Y-79222902D01*
X163573966Y-79222902D01*
X163466216Y-79169027D01*
X163412341Y-79115152D01*
X163358467Y-79007402D01*
X163358467Y-78953528D01*
X163547028Y-78764966D01*
X163654778Y-78872715D01*
X163062155Y-78764966D02*
X163627841Y-78199280D01*
X163412341Y-77983781D01*
X163331529Y-77956844D01*
X163277654Y-77956844D01*
X163196842Y-77983781D01*
X163116030Y-78064593D01*
X163089093Y-78145406D01*
X163089093Y-78199280D01*
X163116030Y-78280093D01*
X163331529Y-78495592D01*
X162200158Y-77902969D02*
X162523407Y-78226218D01*
X162361783Y-78064593D02*
X162927468Y-77498908D01*
X162900531Y-77633595D01*
X162900531Y-77741345D01*
X162927468Y-77822157D01*
X162415658Y-76987097D02*
X162361783Y-76933223D01*
X162280971Y-76906285D01*
X162227096Y-76906285D01*
X162146284Y-76933223D01*
X162011597Y-77014035D01*
X161876910Y-77148722D01*
X161796097Y-77283409D01*
X161769160Y-77364221D01*
X161769160Y-77418096D01*
X161796097Y-77498908D01*
X161849972Y-77552783D01*
X161930784Y-77579720D01*
X161984659Y-77579720D01*
X162065471Y-77552783D01*
X162200158Y-77471971D01*
X162334845Y-77337284D01*
X162415658Y-77202597D01*
X162442595Y-77121784D01*
X162442595Y-77067910D01*
X162415658Y-76987097D01*
X163346903Y-73146218D02*
X163427715Y-73173155D01*
X163508528Y-73253967D01*
X163562402Y-73361717D01*
X163562402Y-73469467D01*
X163535465Y-73550279D01*
X163454653Y-73684966D01*
X163373841Y-73765778D01*
X163239154Y-73846590D01*
X163158341Y-73873528D01*
X163050592Y-73873528D01*
X162942842Y-73819653D01*
X162888967Y-73765778D01*
X162835093Y-73658028D01*
X162835093Y-73604154D01*
X163023654Y-73415592D01*
X163131404Y-73523341D01*
X162538781Y-73415592D02*
X163104467Y-72849906D01*
X162888967Y-72634407D01*
X162808155Y-72607470D01*
X162754280Y-72607470D01*
X162673468Y-72634407D01*
X162592656Y-72715219D01*
X162565719Y-72796032D01*
X162565719Y-72849906D01*
X162592656Y-72930719D01*
X162808155Y-73146218D01*
X161946158Y-72822969D02*
X161838409Y-72715219D01*
X161811471Y-72634407D01*
X161811471Y-72580532D01*
X161838409Y-72445845D01*
X161919221Y-72311158D01*
X162134720Y-72095659D01*
X162215532Y-72068722D01*
X162269407Y-72068722D01*
X162350219Y-72095659D01*
X162457969Y-72203409D01*
X162484906Y-72284221D01*
X162484906Y-72338096D01*
X162457969Y-72418908D01*
X162323282Y-72553595D01*
X162242470Y-72580532D01*
X162188595Y-72580532D01*
X162107783Y-72553595D01*
X162000033Y-72445845D01*
X161973096Y-72365033D01*
X161973096Y-72311158D01*
X162000033Y-72230346D01*
X163346903Y-70606218D02*
X163427715Y-70633155D01*
X163508528Y-70713967D01*
X163562402Y-70821717D01*
X163562402Y-70929467D01*
X163535465Y-71010279D01*
X163454653Y-71144966D01*
X163373841Y-71225778D01*
X163239154Y-71306590D01*
X163158341Y-71333528D01*
X163050592Y-71333528D01*
X162942842Y-71279653D01*
X162888967Y-71225778D01*
X162835093Y-71118028D01*
X162835093Y-71064154D01*
X163023654Y-70875592D01*
X163131404Y-70983341D01*
X162538781Y-70875592D02*
X163104467Y-70309906D01*
X162888967Y-70094407D01*
X162808155Y-70067470D01*
X162754280Y-70067470D01*
X162673468Y-70094407D01*
X162592656Y-70175219D01*
X162565719Y-70256032D01*
X162565719Y-70309906D01*
X162592656Y-70390719D01*
X162808155Y-70606218D01*
X162215532Y-69905845D02*
X162296345Y-69932783D01*
X162350219Y-69932783D01*
X162431032Y-69905845D01*
X162457969Y-69878908D01*
X162484906Y-69798096D01*
X162484906Y-69744221D01*
X162457969Y-69663409D01*
X162350219Y-69555659D01*
X162269407Y-69528722D01*
X162215532Y-69528722D01*
X162134720Y-69555659D01*
X162107783Y-69582597D01*
X162080845Y-69663409D01*
X162080845Y-69717284D01*
X162107783Y-69798096D01*
X162215532Y-69905845D01*
X162242470Y-69986658D01*
X162242470Y-70040532D01*
X162215532Y-70121345D01*
X162107783Y-70229094D01*
X162026971Y-70256032D01*
X161973096Y-70256032D01*
X161892284Y-70229094D01*
X161784534Y-70121345D01*
X161757597Y-70040532D01*
X161757597Y-69986658D01*
X161784534Y-69905845D01*
X161892284Y-69798096D01*
X161973096Y-69771158D01*
X162026971Y-69771158D01*
X162107783Y-69798096D01*
X163246903Y-68036218D02*
X163327715Y-68063155D01*
X163408528Y-68143967D01*
X163462402Y-68251717D01*
X163462402Y-68359467D01*
X163435465Y-68440279D01*
X163354653Y-68574966D01*
X163273841Y-68655778D01*
X163139154Y-68736590D01*
X163058341Y-68763528D01*
X162950592Y-68763528D01*
X162842842Y-68709653D01*
X162788967Y-68655778D01*
X162735093Y-68548028D01*
X162735093Y-68494154D01*
X162923654Y-68305592D01*
X163031404Y-68413341D01*
X162438781Y-68305592D02*
X163004467Y-67739906D01*
X162788967Y-67524407D01*
X162708155Y-67497470D01*
X162654280Y-67497470D01*
X162573468Y-67524407D01*
X162492656Y-67605219D01*
X162465719Y-67686032D01*
X162465719Y-67739906D01*
X162492656Y-67820719D01*
X162708155Y-68036218D01*
X162492656Y-67228096D02*
X162115532Y-66850972D01*
X161792284Y-67659094D01*
X163346903Y-65526218D02*
X163427715Y-65553155D01*
X163508528Y-65633967D01*
X163562402Y-65741717D01*
X163562402Y-65849467D01*
X163535465Y-65930279D01*
X163454653Y-66064966D01*
X163373841Y-66145778D01*
X163239154Y-66226590D01*
X163158341Y-66253528D01*
X163050592Y-66253528D01*
X162942842Y-66199653D01*
X162888967Y-66145778D01*
X162835093Y-66038028D01*
X162835093Y-65984154D01*
X163023654Y-65795592D01*
X163131404Y-65903341D01*
X162538781Y-65795592D02*
X163104467Y-65229906D01*
X162888967Y-65014407D01*
X162808155Y-64987470D01*
X162754280Y-64987470D01*
X162673468Y-65014407D01*
X162592656Y-65095219D01*
X162565719Y-65176032D01*
X162565719Y-65229906D01*
X162592656Y-65310719D01*
X162808155Y-65526218D01*
X162296345Y-64421784D02*
X162404094Y-64529534D01*
X162431032Y-64610346D01*
X162431032Y-64664221D01*
X162404094Y-64798908D01*
X162323282Y-64933595D01*
X162107783Y-65149094D01*
X162026971Y-65176032D01*
X161973096Y-65176032D01*
X161892284Y-65149094D01*
X161784534Y-65041345D01*
X161757597Y-64960532D01*
X161757597Y-64906658D01*
X161784534Y-64825845D01*
X161919221Y-64691158D01*
X162000033Y-64664221D01*
X162053908Y-64664221D01*
X162134720Y-64691158D01*
X162242470Y-64798908D01*
X162269407Y-64879720D01*
X162269407Y-64933595D01*
X162242470Y-65014407D01*
X163346903Y-60446218D02*
X163427715Y-60473155D01*
X163508528Y-60553967D01*
X163562402Y-60661717D01*
X163562402Y-60769467D01*
X163535465Y-60850279D01*
X163454653Y-60984966D01*
X163373841Y-61065778D01*
X163239154Y-61146590D01*
X163158341Y-61173528D01*
X163050592Y-61173528D01*
X162942842Y-61119653D01*
X162888967Y-61065778D01*
X162835093Y-60958028D01*
X162835093Y-60904154D01*
X163023654Y-60715592D01*
X163131404Y-60823341D01*
X162538781Y-60715592D02*
X163104467Y-60149906D01*
X162888967Y-59934407D01*
X162808155Y-59907470D01*
X162754280Y-59907470D01*
X162673468Y-59934407D01*
X162592656Y-60015219D01*
X162565719Y-60096032D01*
X162565719Y-60149906D01*
X162592656Y-60230719D01*
X162808155Y-60446218D01*
X162269407Y-59314847D02*
X162538781Y-59584221D01*
X162296345Y-59880532D01*
X162296345Y-59826658D01*
X162269407Y-59745845D01*
X162134720Y-59611158D01*
X162053908Y-59584221D01*
X162000033Y-59584221D01*
X161919221Y-59611158D01*
X161784534Y-59745845D01*
X161757597Y-59826658D01*
X161757597Y-59880532D01*
X161784534Y-59961345D01*
X161919221Y-60096032D01*
X162000033Y-60122969D01*
X162053908Y-60122969D01*
X163346903Y-57906218D02*
X163427715Y-57933155D01*
X163508528Y-58013967D01*
X163562402Y-58121717D01*
X163562402Y-58229467D01*
X163535465Y-58310279D01*
X163454653Y-58444966D01*
X163373841Y-58525778D01*
X163239154Y-58606590D01*
X163158341Y-58633528D01*
X163050592Y-58633528D01*
X162942842Y-58579653D01*
X162888967Y-58525778D01*
X162835093Y-58418028D01*
X162835093Y-58364154D01*
X163023654Y-58175592D01*
X163131404Y-58283341D01*
X162538781Y-58175592D02*
X163104467Y-57609906D01*
X162888967Y-57394407D01*
X162808155Y-57367470D01*
X162754280Y-57367470D01*
X162673468Y-57394407D01*
X162592656Y-57475219D01*
X162565719Y-57556032D01*
X162565719Y-57609906D01*
X162592656Y-57690719D01*
X162808155Y-57906218D01*
X162107783Y-56990346D02*
X161730659Y-57367470D01*
X162457969Y-56909534D02*
X162188595Y-57448282D01*
X161838409Y-57098096D01*
X163346903Y-55366218D02*
X163427715Y-55393155D01*
X163508528Y-55473967D01*
X163562402Y-55581717D01*
X163562402Y-55689467D01*
X163535465Y-55770279D01*
X163454653Y-55904966D01*
X163373841Y-55985778D01*
X163239154Y-56066590D01*
X163158341Y-56093528D01*
X163050592Y-56093528D01*
X162942842Y-56039653D01*
X162888967Y-55985778D01*
X162835093Y-55878028D01*
X162835093Y-55824154D01*
X163023654Y-55635592D01*
X163131404Y-55743341D01*
X162538781Y-55635592D02*
X163104467Y-55069906D01*
X162888967Y-54854407D01*
X162808155Y-54827470D01*
X162754280Y-54827470D01*
X162673468Y-54854407D01*
X162592656Y-54935219D01*
X162565719Y-55016032D01*
X162565719Y-55069906D01*
X162592656Y-55150719D01*
X162808155Y-55366218D01*
X162592656Y-54558096D02*
X162242470Y-54207910D01*
X162215532Y-54611971D01*
X162134720Y-54531158D01*
X162053908Y-54504221D01*
X162000033Y-54504221D01*
X161919221Y-54531158D01*
X161784534Y-54665845D01*
X161757597Y-54746658D01*
X161757597Y-54800532D01*
X161784534Y-54881345D01*
X161946158Y-55042969D01*
X162026971Y-55069906D01*
X162080845Y-55069906D01*
X163346903Y-45206218D02*
X163427715Y-45233155D01*
X163508528Y-45313967D01*
X163562402Y-45421717D01*
X163562402Y-45529467D01*
X163535465Y-45610279D01*
X163454653Y-45744966D01*
X163373841Y-45825778D01*
X163239154Y-45906590D01*
X163158341Y-45933528D01*
X163050592Y-45933528D01*
X162942842Y-45879653D01*
X162888967Y-45825778D01*
X162835093Y-45718028D01*
X162835093Y-45664154D01*
X163023654Y-45475592D01*
X163131404Y-45583341D01*
X162538781Y-45475592D02*
X163104467Y-44909906D01*
X162888967Y-44694407D01*
X162808155Y-44667470D01*
X162754280Y-44667470D01*
X162673468Y-44694407D01*
X162592656Y-44775219D01*
X162565719Y-44856032D01*
X162565719Y-44909906D01*
X162592656Y-44990719D01*
X162808155Y-45206218D01*
X162431032Y-44236471D02*
X162377157Y-44182597D01*
X162296345Y-44155659D01*
X162242470Y-44155659D01*
X162161658Y-44182597D01*
X162026971Y-44263409D01*
X161892284Y-44398096D01*
X161811471Y-44532783D01*
X161784534Y-44613595D01*
X161784534Y-44667470D01*
X161811471Y-44748282D01*
X161865346Y-44802157D01*
X161946158Y-44829094D01*
X162000033Y-44829094D01*
X162080845Y-44802157D01*
X162215532Y-44721345D01*
X162350219Y-44586658D01*
X162431032Y-44451971D01*
X162457969Y-44371158D01*
X162457969Y-44317284D01*
X162431032Y-44236471D01*
X163446903Y-52826218D02*
X163527715Y-52853155D01*
X163608528Y-52933967D01*
X163662402Y-53041717D01*
X163662402Y-53149467D01*
X163635465Y-53230279D01*
X163554653Y-53364966D01*
X163473841Y-53445778D01*
X163339154Y-53526590D01*
X163258341Y-53553528D01*
X163150592Y-53553528D01*
X163042842Y-53499653D01*
X162988967Y-53445778D01*
X162935093Y-53338028D01*
X162935093Y-53284154D01*
X163123654Y-53095592D01*
X163231404Y-53203341D01*
X162638781Y-53095592D02*
X163204467Y-52529906D01*
X162988967Y-52314407D01*
X162908155Y-52287470D01*
X162854280Y-52287470D01*
X162773468Y-52314407D01*
X162692656Y-52395219D01*
X162665719Y-52476032D01*
X162665719Y-52529906D01*
X162692656Y-52610719D01*
X162908155Y-52826218D01*
X162611844Y-52045033D02*
X162611844Y-51991158D01*
X162584906Y-51910346D01*
X162450219Y-51775659D01*
X162369407Y-51748722D01*
X162315532Y-51748722D01*
X162234720Y-51775659D01*
X162180845Y-51829534D01*
X162126971Y-51937284D01*
X162126971Y-52583781D01*
X161776784Y-52233595D01*
X163446903Y-47736218D02*
X163527715Y-47763155D01*
X163608528Y-47843967D01*
X163662402Y-47951717D01*
X163662402Y-48059467D01*
X163635465Y-48140279D01*
X163554653Y-48274966D01*
X163473841Y-48355778D01*
X163339154Y-48436590D01*
X163258341Y-48463528D01*
X163150592Y-48463528D01*
X163042842Y-48409653D01*
X162988967Y-48355778D01*
X162935093Y-48248028D01*
X162935093Y-48194154D01*
X163123654Y-48005592D01*
X163231404Y-48113341D01*
X162638781Y-48005592D02*
X163204467Y-47439906D01*
X162988967Y-47224407D01*
X162908155Y-47197470D01*
X162854280Y-47197470D01*
X162773468Y-47224407D01*
X162692656Y-47305219D01*
X162665719Y-47386032D01*
X162665719Y-47439906D01*
X162692656Y-47520719D01*
X162908155Y-47736218D01*
X161776784Y-47143595D02*
X162100033Y-47466844D01*
X161938409Y-47305219D02*
X162504094Y-46739534D01*
X162477157Y-46874221D01*
X162477157Y-46981971D01*
X162504094Y-47062783D01*
%TD*%
M02*
