M48
; DRILL file {KiCad (5.1.10)-1} date 09/07/22 09:40:54
; FORMAT={-:-/ absolute / inch / decimal}
; #@! TF.CreationDate,2022-09-07T09:40:54-04:00
; #@! TF.GenerationSoftware,Kicad,Pcbnew,(5.1.10)-1
; #@! TF.FileFunction,NonPlated,1,2,NPTH
FMAT,2
INCH
T1C0.0669
T2C0.0984
T3C0.1575
%
G90
G05
T1
X4.95Y-2.875
X4.95Y-3.675
X4.95Y-4.475
X5.35Y-2.875
X5.35Y-3.675
X5.35Y-4.475
X5.725Y-2.875
X5.725Y-3.675
X5.725Y-4.475
X6.125Y-2.875
X6.125Y-3.675
X6.125Y-4.475
X6.5Y-2.075
X6.5Y-2.875
X6.5Y-3.675
X6.5Y-4.475
X6.9Y-2.075
X6.9Y-2.875
X6.9Y-3.675
X6.9Y-4.475
T2
X4.705Y-1.595
X4.71Y-5.85
X7.155Y-1.595
X7.155Y-5.85
T3
X5.15Y-2.875
X5.15Y-3.675
X5.15Y-4.475
X5.925Y-2.875
X5.925Y-3.675
X5.925Y-4.475
X6.7Y-2.075
X6.7Y-2.875
X6.7Y-3.675
X6.7Y-4.475
T0
M30
