M48
; DRILL file {KiCad (5.1.10)-1} date 09/07/22 09:40:54
; FORMAT={-:-/ absolute / inch / decimal}
; #@! TF.CreationDate,2022-09-07T09:40:54-04:00
; #@! TF.GenerationSoftware,Kicad,Pcbnew,(5.1.10)-1
; #@! TF.FileFunction,Plated,1,2,PTH
FMAT,2
INCH
T1C0.0394
T2C0.0402
T3C0.0433
T4C0.0591
%
G90
G05
T1
X5.0081Y-5.1
X5.0081Y-5.6709
X5.0281Y-1.795
X5.0281Y-2.3659
X5.1066Y-5.1
X5.1266Y-1.795
X5.205Y-5.1
X5.205Y-5.6709
X5.225Y-1.795
X5.225Y-2.3659
X5.55Y-1.78
X5.55Y-1.88
X5.55Y-1.98
X5.55Y-2.08
X5.55Y-2.18
X5.55Y-2.28
X5.55Y-2.38
X5.55Y-2.48
X5.55Y-2.58
X5.55Y-2.68
X5.55Y-2.78
X5.55Y-2.88
X5.55Y-2.98
X5.55Y-3.08
X5.55Y-3.18
X5.55Y-3.28
X5.55Y-3.38
X5.55Y-3.48
X5.55Y-3.58
X5.55Y-3.68
X5.8265Y-5.0991
X5.8265Y-5.67
X5.9249Y-5.0991
X6.0233Y-5.0991
X6.0233Y-5.67
X6.25Y-1.775
X6.25Y-1.875
X6.25Y-1.975
X6.25Y-2.075
X6.25Y-2.175
X6.25Y-2.275
X6.25Y-2.375
X6.25Y-2.475
X6.25Y-2.575
X6.25Y-2.675
X6.25Y-2.775
X6.25Y-2.875
X6.25Y-2.975
X6.25Y-3.075
X6.25Y-3.175
X6.25Y-3.275
X6.25Y-3.375
X6.25Y-3.475
X6.25Y-3.575
X6.25Y-3.675
X6.6481Y-5.1
X6.6481Y-5.6709
X6.7466Y-5.1
X6.845Y-5.1
X6.845Y-5.6709
T2
X5.55Y-1.775
X5.55Y-1.875
X5.55Y-1.975
X5.55Y-2.075
X5.55Y-2.175
X5.55Y-2.275
X5.55Y-2.375
X5.55Y-2.475
X5.55Y-2.575
X5.55Y-2.675
X5.55Y-2.775
X5.55Y-2.875
X5.55Y-2.975
X5.55Y-3.075
X5.55Y-3.175
X5.55Y-3.275
X5.55Y-3.375
X5.55Y-3.475
X5.55Y-3.575
X5.55Y-3.675
X6.25Y-1.775
X6.25Y-1.875
X6.25Y-1.975
X6.25Y-2.075
X6.25Y-2.175
X6.25Y-2.275
X6.25Y-2.375
X6.25Y-2.475
X6.25Y-2.575
X6.25Y-2.675
X6.25Y-2.775
X6.25Y-2.875
X6.25Y-2.975
X6.25Y-3.075
X6.25Y-3.175
X6.25Y-3.275
X6.25Y-3.375
X6.25Y-3.475
X6.25Y-3.575
X6.25Y-3.675
T3
X5.805Y-1.9641
X5.805Y-2.22
X5.9822Y-1.9641
X5.9822Y-2.22
T4
X5.0Y-2.775
X5.0Y-3.575
X5.0Y-4.375
X5.25Y-2.675
X5.25Y-3.475
X5.25Y-4.275
X5.775Y-2.775
X5.775Y-3.575
X5.775Y-4.375
X6.025Y-2.675
X6.025Y-3.475
X6.025Y-4.275
X6.55Y-1.975
X6.55Y-2.775
X6.55Y-3.575
X6.55Y-4.375
X6.8Y-1.875
X6.8Y-2.675
X6.8Y-3.475
X6.8Y-4.275
T4
G00X4.8861Y-5.3697
M15
G01X4.8861Y-5.4209
M16
G05
G00X4.9061Y-2.0647
M15
G01X4.9061Y-2.1159
M16
G05
G00X5.327Y-5.3697
M15
G01X5.327Y-5.4209
M16
G05
G00X5.347Y-2.0647
M15
G01X5.347Y-2.1159
M16
G05
G00X5.7045Y-5.3688
M15
G01X5.7045Y-5.42
M16
G05
G00X6.1454Y-5.3688
M15
G01X6.1454Y-5.42
M16
G05
G00X6.5261Y-5.3697
M15
G01X6.5261Y-5.4209
M16
G05
G00X6.967Y-5.3697
M15
G01X6.967Y-5.4209
M16
G05
T0
M30
